<?xml version="1.0" standalone="no"?>
<!DOCTYPE svg PUBLIC "-//W3C//DTD SVG 1.1//EN" "http://www.w3.org/Graphics/SVG/1.1/DTD/svg11.dtd" >
<svg xmlns="http://www.w3.org/2000/svg">
<metadata>Generated by IcoMoon</metadata>
<defs>
<font id="cj-icons" horiz-adv-x="1024">
<font-face units-per-em="1024" ascent="960" descent="-64" />
<missing-glyph horiz-adv-x="1024" />
<glyph unicode="&#x20;" d="" horiz-adv-x="512" />
<glyph unicode="&#x40;" d="M80.589 702.157c24.986-13.414 371.098-199.373 384-206.285s29.594-10.189 46.387-10.189c16.794 0 33.485 3.277 46.387 10.189s359.014 192.87 384 206.285c25.037 13.466 48.691 65.843 2.765 65.843h-866.253c-45.926 0-22.272-52.378 2.714-65.843zM952.986 589.363c-28.416-14.797-378.214-197.069-395.622-206.182s-29.594-10.189-46.387-10.189-28.979 1.075-46.387 10.189-365.21 191.437-393.626 206.234c-19.968 10.445-19.763-1.792-19.763-11.213s0-373.402 0-373.402c0-21.504 28.979-51.2 51.2-51.2h819.2c22.221 0 51.2 29.696 51.2 51.2 0 0 0 363.93 0 373.35s0.205 21.658-19.814 11.213z" />
<glyph unicode="&#x74;" d="M798.72 41.165c-39.782-18.995-75.776-32.307-107.981-39.987-32.256-7.578-67.123-11.418-104.602-11.418-42.547 0-80.179 5.478-112.896 16.282-32.717 10.906-60.57 26.419-83.712 46.49-23.091 20.224-39.117 41.574-48.026 64.205-8.909 22.682-13.363 55.603-13.363 98.611v330.496h-102.861v133.325c36.557 11.981 67.891 29.184 93.952 51.712 26.112 22.426 47.002 49.408 62.822 80.896 15.77 31.386 26.573 71.475 32.563 120.064h132.352v-238.182h220.877v-147.814h-220.877v-241.613c0-54.579 2.867-89.702 8.602-105.216 5.683-15.514 16.333-27.904 31.846-37.12 20.634-12.493 44.186-18.79 70.707-18.79 47.104 0 94.003 15.514 140.595 46.49v-148.429z" />
<glyph unicode="&#x78;" d="M734.618 212.531c-24.013-24.013-62.925-24.013-86.886 0l-135.731 155.136-135.731-155.085c-24.013-24.013-62.925-24.013-86.886 0-24.013 24.013-24.013 62.925 0 86.886l141.21 161.28-141.261 161.382c-24.013 24.013-24.013 62.874 0 86.886s62.874 24.013 86.886 0l135.782-155.187 135.731 155.187c24.013 24.013 62.874 24.013 86.886 0s24.013-62.925 0-86.886l-141.21-161.382 141.21-161.28c24.013-24.013 24.013-62.925 0-86.938z" />
<glyph unicode="&#x201d;" d="M272.128 798.669c-82.432 0-149.299-68.762-149.299-153.6 0-84.787 66.867-153.6 149.299-153.6 149.248 0 49.766-296.909-149.299-296.909v-71.68c355.277-0.051 494.49 675.789 149.299 675.789zM702.208 798.669c-82.381 0-149.248-68.762-149.248-153.6 0-84.787 66.867-153.6 149.248-153.6 149.299 0 49.818-296.909-149.248-296.909v-71.68c355.226-0.051 494.438 675.789 149.248 675.789z" />
<glyph unicode="&#xe600;" d="M59.028 431.839c0 37.445 7.092 70.814 21.293 100.119 14.185 29.29 33.212 53.909 57.080 73.843 23.855 19.932 51.489 35.18 82.902 45.755 31.4 10.562 64.33 15.856 98.76 15.856 35.633 0 67.798-5.747 96.493-17.215 28.682-11.48 52.691-25.979 72.030-43.49l-61.611-82.451c-33.226 23.558-66.454 35.336-99.666 35.336-38.663 0-70.077-11.482-94.229-34.428-24.166-22.962-36.243-54.066-36.243-93.323 0-39.273 11.623-70.375 34.883-93.323 23.247-22.962 53.599-34.43 91.058-34.43 23.556 0 45.302 4.219 65.234 12.686 19.934 8.45 37.743 18.418 53.456 29.898l54.364-84.263c-27.183-22.962-57.237-39.724-90.152-50.286-32.93-10.56-64.783-15.854-95.588-15.854-35.648 0-68.562 5.294-98.758 15.854-30.211 10.562-56.629 25.824-79.28 45.757s-40.318 44.537-53.005 73.843c-12.68 29.291-19.022 62.659-19.022 100.117zM672.413 376.571c35.023-43.49 72.483-65.234 112.349-65.234 30.804 0 53.754 7.702 68.859 23.103 15.091 15.403 22.65 43.633 22.65 84.716v267.281h-231.040v111.444h364.231v-389.599c0-28.993-3.78-56.331-11.327-81.998-7.559-25.682-20.089-48.176-37.6-67.499-17.527-19.339-40.318-34.585-68.407-45.755-28.087-11.172-62.376-16.762-102.836-16.762-16.309 0-33.226 1.669-50.737 4.982-17.527 3.328-34.74 8.907-51.645 16.762-16.917 7.844-33.226 17.964-48.927 30.353-15.715 12.375-29.899 27.634-42.584 45.755l77.016 82.451z" horiz-adv-x="1087" />
<glyph unicode="&#xe601;" d="M919.501 738.765l-368.794-253.389c0 0-14.285-10.291-14.285-24.627s14.285-24.525 14.285-24.525l368.794-253.491c29.286-19.456 53.299-5.069 53.299 32.051v491.981c0 37.222-24.013 51.61-53.299 32zM454.81 738.765l-368.794-253.389c0 0-14.285-10.291-14.285-24.627s14.285-24.525 14.285-24.525l368.794-253.491c29.286-19.507 53.299-5.12 53.299 32v492.032c0 37.222-24.013 51.61-53.299 32z" />
<glyph unicode="&#xe602;" d="M859.276 471.001l-315.14 315.128c-18.142 18.152-47.574 18.152-65.74 0l-65.434-65.446 83.006-83.012c19.296 6.516 41.418 2.144 56.792-13.232 15.462-15.47 19.796-37.784 13.118-57.144l80.006-80c19.36 6.674 41.686 2.36 57.148-13.124 21.602-21.598 21.602-56.606 0-78.216-21.616-21.614-56.618-21.614-78.242 0-16.248 16.262-20.27 40.136-12.030 60.154l-74.622 74.616v-196.348c5.262-2.61 10.23-6.084 14.622-10.46 21.602-21.596 21.602-56.6 0-78.23-21.602-21.596-56.63-21.596-78.216 0-21.6 21.63-21.6 56.634 0 78.23 5.34 5.336 11.52 9.372 18.12 12.072v198.164c-6.6 2.702-12.766 6.702-18.12 12.072-16.362 16.354-20.296 40.37-11.908 60.464l-81.83 81.846-216.090-216.072c-18.148-18.168-18.148-47.602 0-65.756l315.156-315.124c18.14-18.146 47.568-18.146 65.738 0l313.666 313.666c18.158 18.154 18.158 47.604 0 65.752z" />
<glyph unicode="&#xe604;" d="M162.611 781.010c-18.050-18.050-13.537-38.805 18.048-85.733 16.243-24.363 35.2-62.269 42.419-83.927 7.218-22.562 21.662-53.244 31.585-68.587 18.049-25.267 18.049-30.682 6.318-76.709-7.218-28.881-9.932-64.979-6.318-87.539 5.413-37.906 36.099-92.951 55.046-99.271 16.251-5.41 39.712 23.471 40.611 49.637 0 22.559 0.907 23.469 10.83 7.219 17.151-27.975 71.298-87.533 75.81-83.021 1.807 1.799-9.932 25.268-27.072 51.434-16.243 27.074-35.2 62.273-42.417 78.516-9.924 27.072-13.537 28.879-25.268 16.242-7.219-7.217-16.243-27.973-18.958-46.92-7.217-43.326-23.46-48.736-36.098-11.74-12.629 37.006-12.629 100.18 0 143.495 9.026 29.779 8.127 37.904-7.217 60.465-9.923 13.537-25.268 46.022-33.393 72.196-8.117 25.268-27.075 63.173-42.408 83.024-35.2 49.635-35.2 67.684 1.797 60.466 15.345-2.71 38.813-13.536 53.25-23.465 13.535-9.928 36.997-18.049 51.44-18.049 43.316 0 119.125-42.418 174.171-97.464 42.417-42.417 64.071-76.709 110.101-169.665 54.148-110.096 58.662-116.414 92.053-127.244 39.703-13.537 122.732-64.070 122.732-74.902 0-3.615-20.754-9.027-46.021-10.832-67.686-7.219-74.008-19.855-29.791-59.559 20.768-18.051 59.57-46.029 87.541-61.365l50.543-28.881-23.469 29.779c-13.537 16.242-41.51 41.508-63.17 55.045-21.654 13.537-38.805 27.982-38.805 31.588 0 3.613 15.342 9.932 34.293 12.639 50.541 9.023 64.975 13.535 64.975 22.559 0 13.539-91.141 82.123-134.469 101.078-36.996 17.143-41.51 24.369-89.338 122.731-42.416 90.245-59.566 115.517-113.713 169.662-69.483 69.488-117.319 99.271-178.685 108.295-20.756 3.61-49.635 14.44-62.264 23.465-29.788 22.562-90.246 30.683-104.691 15.34z" />
<glyph unicode="&#xe606;" d="M512 78.923c-170.352 0-308.516 46.094-308.516 102.836 0 31.036 0 64.98 0 102.84 0 8.938 4.468 17.426 10.896 25.71 34.398-44.29 154.008-77.128 297.62-77.128s263.22 32.84 297.62 77.128c6.426-8.286 10.896-16.774 10.896-25.71 0-29.778 0-61.364 0-102.84 0-56.742-138.19-102.836-308.516-102.836zM512 284.599c-170.352 0-308.516 46.098-308.516 102.84 0 31.054 0 64.95 0 102.836 0 5.448 2.058 10.746 4.82 15.994v0c1.558 3.288 3.616 6.526 6.076 9.716 34.398-44.264 154.008-77.128 297.62-77.128s263.22 32.866 297.62 77.13c2.458-3.19 4.52-6.428 6.076-9.716v0c2.76-5.248 4.82-10.546 4.82-15.994 0-29.778 0-61.336 0-102.836 0-56.744-138.19-102.842-308.516-102.842zM512 490.275c-170.352 0-308.516 46.072-308.516 102.836 0 16.246 0 33.418 0 51.42 0 16.344 0 33.318 0 51.418 0 56.768 138.164 102.84 308.516 102.84 170.326 0 308.516-46.072 308.516-102.84 0-16.042 0-33.066 0-51.418 0-15.742 0-32.338 0-51.42 0-56.764-138.19-102.836-308.516-102.836zM512 747.371c-113.584 0-205.676-22.972-205.676-51.418s92.092-51.418 205.676-51.418c113.584 0 205.678 22.972 205.678 51.418s-92.094 51.418-205.678 51.418z" />
<glyph unicode="&#xe609;" d="M512 789.009c-198.258 0-359.004-160.746-359.004-359 0-158.64 102.856-293.18 245.524-340.642 17.944-3.284 24.498 7.802 24.498 17.27 0 8.544-0.33 36.856-0.504 66.83-99.832-21.692-120.932 42.336-120.932 42.336-16.344 41.456-39.858 52.498-39.858 52.498-32.626 22.262 2.474 21.824 2.474 21.824 36.044-2.498 55.024-36.986 55.024-36.986 32.036-54.87 84.052-39.004 104.474-29.8 3.262 23.138 12.554 39.004 22.788 47.944-79.692 9.070-163.528 39.878-163.528 177.438 0 39.224 14.002 71.212 36.922 96.346-3.66 9.116-16.018 45.644 3.548 95.052 0 0 30.108 9.642 98.736-36.812 28.616 8 59.314 11.942 89.838 12.076 30.5-0.132 61.218-4.12 89.882-12.118 68.496 46.498 98.644 36.812 98.644 36.812 19.632-49.454 7.278-85.936 3.598-95.008 23.008-25.134 36.898-57.124 36.898-96.346 0-137.912-83.968-168.28-163.946-177.174 12.93-11.132 24.364-32.958 24.364-66.438 0-47.988-0.476-86.682-0.476-98.514 0-9.556 6.528-20.73 24.714-17.226 142.558 47.552 245.324 182.088 245.324 340.642 0.002 198.25-160.744 358.996-359.002 358.996z" />
<glyph unicode="&#xe60b;" d="M149.794 439.351c0-143.122 83.192-266.93 203.876-325.478l-172.528 472.728c-20.1-45.018-31.348-94.772-31.348-147.25zM755.722 457.629c0 44.702-16.094 75.688-29.826 99.762-18.336 29.826-35.492 55.020-35.492 84.858 0 33.254 25.132 64.184 60.744 64.184 1.534 0 3.098-0.212 4.632-0.314-64.33 58.948-150.064 94.986-244.232 94.986-126.406 0-237.572-64.874-302.218-163.060 8.506-0.272 16.47-0.458 23.256-0.458 37.846 0 96.408 4.648 96.408 4.648 19.454 1.088 21.762-27.49 2.264-29.84 0 0-19.568-2.266-41.39-3.442l131.746-391.77 79.174 237.374-56.38 154.398c-19.482 1.176-37.932 3.442-37.932 3.442-19.51 1.176-17.188 30.928 2.324 29.84 0 0 59.696-4.648 95.218-4.648 37.812 0 96.46 4.648 96.46 4.648 19.412 1.088 21.734-27.49 2.226-29.84 0 0-19.542-2.266-41.358-3.442l130.734-388.786 36.096 120.506c18.336 47.030 27.546 85.966 27.546 116.954zM517.892 407.701l-108.56-315.398c32.392-9.516 66.624-14.696 102.206-14.696 42.088 0 82.518 7.288 120.118 20.542-0.972 1.536-1.866 3.158-2.596 4.934l-111.168 304.618zM828.92 612.941c1.592-11.564 2.494-23.902 2.494-37.244 0-36.684-6.884-77.93-27.542-129.562l-110.48-319.394c107.51 62.666 179.814 179.146 179.814 312.594 0.012 62.938-16.054 122.046-44.286 173.606z" />
<glyph unicode="&#xe60d;" d="M393.84 151.353c-2.727-32.451 13.647-56.711 44.279-64.902 25.169-6.672 54.282 5.156 66.717 27.6 3.639 6.367 44.885 112.209 91.59 235.338 78.547 206.831 85.824 224.724 96.742 235.946 6.674 6.976 12.133 13.949 12.133 15.769s-5.762 8.494-12.736 14.559c-27.902 25.169-93.408 46.097-121.312 38.818-4.545-1.213-5.459-4.852-5.459-18.802 0-17.592-3.031-28.507-21.229-74.605-5.154-13.345-13.648-36.39-18.799-51.557-4.855-14.861-13.043-36.089-17.895-47.007-4.554-10.913-14.56-36.086-22.14-56.109-7.587-20.014-21.831-57.918-31.844-84.611-10.006-26.379-21.229-51.555-25.171-55.492zM640.094 636.284c30.629-12.736 46.404-28.203 33.664-33.057-12.125-4.548-66.412 14.859-80.672 29.114-5.459 5.459-5.76 7.278-2.729 11.222 5.156 5.761 25.174 3.032 49.736-7.279zM589.752 597.769c10.92-11.526 33.057-19.712 57.32-20.623 12.133-0.605 21.832-1.215 21.832-1.819 0-0.304-2.123-3.944-4.543-7.582-2.426-3.642-12.436-28.207-22.449-54.287-15.766-41.245-19.709-49.134-30.627-59.137-16.682-15.163-43.066-30.024-62.172-34.571-8.188-2.123-20.926-6.068-28.203-9.402-7.277-3.035-14.556-5.459-15.769-5.459-2.734 0 5.761 24.867 34.874 100.081 9.402 24.258 21.84 56.711 27.598 72.177 6.066 15.164 11.828 27.899 13.047 27.899 1.209 0 5.453-3.336 9.092-7.276zM616.437 444.92c-0.906-1.213-29.111-74.604-62.469-162.856-53.984-142.535-62.171-161.951-71.573-170.439-5.764-5.459-13.038-10.010-15.77-9.707-3.641 0-2.425 1.213 3.032 3.332 4.854 1.82 8.187 5.158 8.187 8.496 0 3.033 1.216 6.367 2.731 7.582 1.519 0.908 3.942 6.068 5.155 11.223 0.909 5.457 3.031 11.824 4.244 14.555 4.551 8.492 18.196 43.975 18.196 46.398 0 1.516 1.817 6.979 4.249 12.137 2.423 5.457 10.009 24.867 16.985 43.064 6.969 18.494 15.461 40.938 18.803 50.039 3.641 9.096 7.576 17.896 9.096 19.408 1.211 1.82 2.422 5.758 2.422 8.793 0 3.029 2.129 10.312 4.553 16.074 9.098 20.629 13.043 30.332 18.199 45.189 2.729 8.494 6.365 17.586 7.879 20.318 3.037 5.758 3.641 14.559 1.219 14.559-0.91 0-5.463-2.127-10.008-4.85-7.283-4.25-7.283-4.25 0.91 2.119 5.148 3.941 13.947 11.523 19.709 16.982 9.705 9.103 17.592 13.342 14.25 7.583zM532.435 401.853c0-1.512-2.123-3.029-4.852-3.029-5.76 0-14.256-19.715-14.256-32.453 0.305-5.457-0.907-10.006-2.426-10.006-4.856 0-15.463-24.871-16.982-40.941-1.519-13.951-0.909-16.379 4.248-19.414 8.187-4.24 10.307-13.643 4.849-21.227-4.549-6.672-17.285-8.486-20.621-3.338-4.551 7.283-7.883 2.428-6.070-8.488 1.52-10.314 0.915-12.131-5.451-14.861-4.857-2.424-9.405-8.797-12.743-18.197-10.615-28.809-20.315-54.281-26.079-69.143-3.335-8.188-6.979-21.842-7.884-29.723-1.519-12.437-0.611-15.471 5.459-22.443l7.276-8.188-9.702 6.668c-10.006 6.98-22.143 28.512-22.143 39.43 0 3.639 8.801 30.33 19.714 59.75 10.918 29.109 19.714 54.889 19.714 56.707 0 2.123 10.006 13.65 21.839 25.785 12.126 12.127 20.013 22.131 17.587 22.131-2.429 0-8.797-4.246-14.254-9.703s-10.009-8.188-10.009-6.068c0 9.104 28.51 75.824 35.79 83.705 6.667 7.281 32.748 26.086 36.084 26.086 0.61-0.004 0.913-1.221 0.913-3.039z" />
<glyph unicode="&#xe60e;" d="M217.65 310.931c0-39.368-27.424-71.574-60.94-71.574-33.522 0-60.95 32.208-60.95 71.574v234.26c0 39.372 27.426 71.58 60.95 71.58 33.516 0 60.94-32.208 60.94-71.58v-234.26zM928.238 310.931c0-39.368-27.426-71.574-60.946-71.574-33.518 0-60.952 32.208-60.952 71.574v234.26c0 39.372 27.434 71.58 60.952 71.58 33.52 0 60.946-32.208 60.946-71.58v-234.26zM645.25 843.217l39.106 70.166c3.194 5.732 2.254 12.402-2.090 14.824-4.344 2.42-10.516-0.29-13.708-6.020l-40.012-71.792c-35.672 14.036-75.66 21.904-117.9 21.904-42.552 0-82.824-7.988-118.708-22.228l-40.192 72.116c-3.192 5.732-9.36 8.44-13.7 6.020-4.348-2.42-5.284-9.092-2.092-14.824l39.298-70.52c-81.762-38.398-136.84-110.506-136.84-193.134 0-8.396 0.592-16.676 1.694-24.828h541.074c1.106 8.152 1.696 16.43 1.696 24.828 0 82.886-55.43 155.184-137.626 193.488zM387.104 720.741c-13.15 0-23.808 10.658-23.808 23.808 0 13.148 10.658 23.81 23.808 23.81 13.148 0 23.808-10.662 23.808-23.81 0.002-13.15-10.66-23.808-23.808-23.808zM635.54 720.741c-13.15 0-23.81 10.658-23.81 23.808 0 13.148 10.66 23.81 23.81 23.81 13.148 0 23.808-10.662 23.808-23.81 0-13.15-10.66-23.808-23.808-23.808zM238.416 601.231v-399.084h0.23c2.796-33.71 33.804-60.496 71.348-60.496h401.298c37.542 0 68.544 26.786 71.352 60.496h0.23v399.084h-544.458zM471.666 143.669v-123.468c0-39.368-27.426-71.58-60.946-71.58-33.518 0-60.942 32.212-60.942 71.58v123.344zM674.824 143.733v-123.532c0-39.368-27.43-71.58-60.95-71.58-33.522 0-60.948 32.212-60.948 71.58v123.532z" />
<glyph unicode="&#xe60f;" d="M442.278 455.643h-289.218v247.9l289.218 41.314zM870.94 455.643h-389.926v294.334l389.926 56.858zM442.278 422.071h-289.218v-247.9l289.218-41.318zM870.94 422.071h-389.926v-294.332l389.926-56.86z" />
<glyph unicode="&#xe610;" d="M194.554 197.275v-170.246h536.54v341.525l-27.861-3.098-28.891-3.094-3.090-141.357-3.096-142.387h-422.012v288.904h-51.59v-170.248zM287.415 171.48v-30.953h330.179v61.908h-330.179v-30.955zM292.386 293.371l-3.354-30.772 328.236-35.78 6.708 61.546-328.234 35.78-3.356-30.774zM317.064 438.969l-8.030-29.894 318.878-85.644 16.058 59.79-318.876 85.644-8.030-29.896zM384.76 608.715l-16.482-26.202 279.488-175.802 32.96 52.406-279.484 175.8-16.482-26.202zM542.864 766.779l-25.496-17.556 187.284-271.928 50.986 35.116-187.282 271.924-25.492-17.556zM749.224 846.437l-30.432-5.674 60.564-324.582 60.856 11.356-60.558 324.578-30.43-5.678z" />
<glyph unicode="&#xe611;" d="M736.736 413.017c-1.046 104.29 85.038 154.308 88.876 156.824-48.37 70.74-123.732 80.448-150.562 81.542-64.074 6.52-125.108-37.75-157.624-37.75-32.44 0-82.67 36.8-135.81 35.87-69.922-1.046-134.354-40.672-170.338-103.256-72.6-125.942-18.562-312.602 52.176-414.83 34.596-49.956 75.838-106.184 129.944-104.124 52.158 2.060 71.834 33.746 134.892 33.746 63.042 0 80.758-33.746 135.924-32.682 56.080 1.010 91.64 50.916 125.958 101.082 39.692 58.042 56.046 114.24 57.012 117.102-1.21 0.554-109.32 41.976-110.448 166.476zM633.068 719.033c28.698 34.838 48.142 83.256 42.864 131.446-41.424-1.684-91.556-27.534-121.284-62.34-26.632-30.884-49.938-80.054-43.694-127.378 46.196-3.578 93.322 23.498 122.114 58.272z" />
<glyph unicode="&#xe614;" d="M155.488 723.169v-67.696h424.203v135.384h-424.203v-67.688zM733.123 723.169v-67.696h135.389v135.384h-135.389v-67.688zM155.488 434.351v-67.689h713.023v135.379h-713.023v-67.689zM155.488 150.031v-63.174h279.795v126.365h-279.795v-63.191zM588.719 150.031v-63.174h279.793v126.365h-279.793v-63.191z" />
<glyph unicode="&#xe617;" d="M998.963 52.224l-456.038 851.558c-6.349 11.008-18.125 17.818-30.925 17.818-12.851 0-24.627-6.81-30.925-17.818l-455.987-851.558c-6.195-10.803-6.093-24.115 0.256-34.816 6.4-10.803 18.022-17.408 30.618-17.408h912.077c12.544 0 24.269 6.605 30.618 17.408 6.349 10.701 6.451 24.013 0.307 34.816zM563.2 102.4h-102.4v102.4h102.4v-102.4zM563.2 281.6h-102.4v332.8h102.4v-332.8z" />
<glyph unicode="&#xe618;" d="M511.92 35.363c-10.79 0-21.548 2.828-31.020 8.302l-98.762 58.43c-14.726 8.23-7.508 11.152-2.662 12.854 19.664 6.832 23.648 8.398 44.618 20.31 2.204 1.224 5.102 0.768 7.378-0.566l75.83-45.014c2.77-1.542 6.628-1.542 9.17 0l295.722 170.668c2.758 1.576 4.504 4.758 4.504 7.99v341.296c0 3.344-1.762 6.472-4.574 8.158l-295.592 170.526c-2.746 1.588-6.38 1.588-9.124 0l-295.508-170.588c-2.864-1.624-4.678-4.872-4.678-8.096v-341.296c0-3.248 1.802-6.342 4.642-7.904l81.016-46.792c43.954-21.984 70.872 3.896 70.872 29.91v336.964c0 4.762 3.84 8.518 8.594 8.518h37.506c4.678 0 8.552-3.754 8.552-8.518v-336.964c0-58.658-31.948-92.314-87.562-92.314-17.084 0-30.55 0-68.13 18.522l-77.534 44.64c-19.146 11.080-31.010 31.778-31.010 53.94v341.294c0 22.164 11.864 42.86 31.010 53.894l295.736 170.888c18.724 10.582 43.58 10.582 62.15 0l295.704-170.888c19.152-11.082 31.066-31.73 31.066-53.894v-341.296c0-22.162-11.914-42.788-31.066-53.94l-295.704-170.732c-9.458-5.474-20.188-8.302-31.144-8.302zM603.286 270.481c-129.446 0-156.53 59.418-156.53 109.246 0 4.728 3.79 8.506 8.518 8.506h38.252c4.26 0 7.834-3.082 8.482-7.244 5.764-38.928 22.958-58.576 101.254-58.576 62.282 0 88.79 14.116 88.79 47.144 0 19.060-7.496 33.186-104.332 42.692-80.886 7.99-130.968 25.882-130.968 90.606 0 59.682 50.314 95.25 134.636 95.25 94.742 0 141.602-32.874 147.566-103.444 0.218-2.396-0.636-4.742-2.282-6.558-1.618-1.722-3.868-2.744-6.258-2.744h-38.39c-3.958 0-7.468 2.814-8.274 6.69-9.23 40.958-31.61 54.040-92.364 54.040-68.020 0-75.93-23.694-75.93-41.43 0-21.536 9.352-27.794 101.16-39.948 90.894-12.008 134.070-29.008 134.070-92.88 0.014-64.432-53.702-101.35-147.4-101.35z" />
<glyph unicode="&#xe619;" d="M169.736 429.983c0 3.050-1.604 5.852-4.234 7.362l-70.128 40.36c-1.184 0.7-2.516 1.062-3.858 1.118-0.124 0-0.628 0-0.724 0-1.342-0.056-2.67-0.416-3.874-1.118l-70.124-40.36c-2.618-1.51-4.242-4.308-4.242-7.362l0.154-108.676c0-1.506 0.788-2.918 2.112-3.656 1.306-0.782 2.916-0.782 4.21 0l41.676 23.862c2.636 1.566 4.24 4.33 4.24 7.354v50.776c0 3.020 1.604 5.822 4.228 7.332l17.746 10.222c1.322 0.758 2.766 1.13 4.248 1.13 1.444 0 2.926-0.374 4.21-1.13l17.744-10.222c2.624-1.51 4.234-4.308 4.234-7.332v-50.776c0-3.024 1.626-5.802 4.248-7.354l41.666-23.862c1.31-0.782 2.938-0.782 4.236 0 1.292 0.744 2.104 2.15 2.104 3.656l0.128 108.676zM544.2 579.377c-1.312 0.73-2.914 0.714-4.208-0.048-1.292-0.756-2.090-2.148-2.090-3.654v-107.622c0-1.052-0.566-2.036-1.476-2.568-0.926-0.528-2.054-0.528-2.968 0l-17.562 10.122c-2.628 1.51-5.846 1.504-8.47-0.002l-70.15-40.488c-2.626-1.512-4.242-4.312-4.242-7.33v-81.006c0-3.024 1.614-5.812 4.234-7.336l70.156-40.512c2.622-1.514 5.852-1.514 8.468 0l70.168 40.512c2.622 1.524 4.234 4.312 4.234 7.336v201.9c0 3.070-1.66 5.9-4.348 7.4l-41.746 23.296zM537.692 373.401c0-0.754-0.398-1.458-1.054-1.834l-24.094-13.884c-0.646-0.38-1.462-0.38-2.112 0l-24.086 13.884c-0.662 0.376-1.062 1.080-1.062 1.834v27.81c0 0.756 0.402 1.458 1.062 1.834l24.082 13.918c0.654 0.376 1.466 0.376 2.122 0l24.088-13.918c0.656-0.376 1.054-1.078 1.054-1.834v-27.81zM795.196 401.945c2.606 1.508 4.21 4.304 4.21 7.318v19.628c0 3.024-1.606 5.808-4.214 7.33l-69.708 40.47c-2.624 1.524-5.864 1.528-8.488 0.012l-70.132-40.486c-2.618-1.518-4.23-4.312-4.23-7.338v-80.97c0-3.042 1.628-5.86 4.278-7.366l69.696-39.712c2.574-1.458 5.714-1.48 8.312-0.044l42.156 23.434c1.328 0.742 2.16 2.146 2.172 3.67 0.008 1.53-0.8 2.944-2.124 3.704l-70.578 40.512c-1.316 0.75-2.124 2.158-2.124 3.67v25.38c0 1.51 0.808 2.91 2.118 3.67l21.972 12.656c1.304 0.752 2.918 0.752 4.222 0l21.98-12.656c1.308-0.76 2.118-2.16 2.118-3.67v-19.974c0-1.514 0.804-2.91 2.124-3.668 1.312-0.756 2.93-0.748 4.242 0.012l41.998 24.418zM297.304 477.129c2.622 1.512 5.85 1.512 8.47 0l70.152-40.482c2.616-1.512 4.234-4.302 4.234-7.334v-81.026c0-3.026-1.618-5.818-4.234-7.34l-70.152-40.512c-2.622-1.506-5.852-1.506-8.47 0l-70.132 40.512c-2.622 1.518-4.234 4.314-4.234 7.34v81.026c0 3.032 1.614 5.822 4.238 7.334l70.128 40.482zM931.394 299.281c-2.414 0-4.824 0.63-6.942 1.856l-22.090 13.070c-3.292 1.84-1.68 2.494-0.594 2.874 4.398 1.53 5.29 1.878 9.98 4.542 0.492 0.276 1.14 0.174 1.648-0.124l16.96-10.068c0.622-0.344 1.484-0.344 2.050 0l66.148 38.174c0.614 0.352 1.004 1.064 1.004 1.788v76.338c0 0.75-0.39 1.45-1.024 1.826l-66.118 38.142c-0.614 0.356-1.426 0.356-2.040 0l-66.098-38.156c-0.64-0.364-1.046-1.090-1.046-1.812v-76.338c0-0.726 0.406-1.418 1.040-1.768l18.122-10.464c9.832-4.918 15.852 0.87 15.852 6.69v75.366c0 1.066 0.86 1.904 1.922 1.904h8.39c1.046 0 1.914-0.838 1.914-1.904v-75.37c0-13.122-7.144-20.648-19.586-20.648-3.82 0-6.836 0-15.238 4.14l-17.344 9.986c-4.282 2.476-6.938 7.108-6.938 12.064v76.338c0 4.958 2.656 9.588 6.938 12.054l66.148 38.224c4.188 2.366 9.75 2.366 13.902 0l66.14-38.224c4.286-2.476 6.95-7.096 6.95-12.054v-76.338c0-4.958-2.664-9.568-6.95-12.064l-66.14-38.19c-2.112-1.224-4.51-1.854-6.96-1.854zM951.828 351.871c-28.954 0-35.012 13.292-35.012 24.434 0 1.058 0.848 1.904 1.906 1.904h8.554c0.954 0 1.754-0.692 1.898-1.62 1.29-8.708 5.136-13.104 22.648-13.104 13.93 0 19.86 3.156 19.86 10.544 0 4.264-1.676 7.424-23.336 9.548-18.094 1.788-29.292 5.79-29.292 20.268 0 13.35 11.25 21.302 30.114 21.302 21.192 0 31.672-7.352 33.004-23.136 0.050-0.536-0.14-1.060-0.508-1.466-0.364-0.384-0.864-0.614-1.402-0.614h-8.586c-0.882 0-1.668 0.628-1.852 1.496-2.062 9.162-7.066 12.088-20.656 12.088-15.214 0-16.984-5.3-16.984-9.268 0-4.816 2.094-6.218 22.628-8.936 20.328-2.686 29.988-6.488 29.988-20.774 0-14.41-12.010-22.666-32.972-22.666zM720.208 405.733c0.504 0.288 1.118 0.288 1.628 0l13.46-7.764c0.5-0.292 0.816-0.832 0.816-1.412v-15.546c0-0.582-0.316-1.118-0.816-1.404l-13.46-7.776c-0.512-0.284-1.124-0.284-1.628 0l-13.45 7.776c-0.5 0.288-0.812 0.822-0.812 1.404v15.546c0 0.58 0.312 1.12 0.812 1.412l13.45 7.764z" />
<glyph unicode="&#xe61a;" d="M1024 393.216c0-132.301-109.773-239.616-245.094-239.616h-593.715c-102.298 0-185.19 81.101-185.19 181.094 0 99.891 82.893 180.992 185.19 180.992 7.475 0 14.746-0.614 21.965-1.382-1.894 12.595-2.918 25.498-2.918 38.707 0 146.995 121.907 266.189 272.384 266.189 123.238 0 227.277-79.974 260.915-189.798 13.466 2.202 27.238 3.379 41.421 3.379 135.27 0 245.043-107.162 245.043-239.565z" />
<glyph unicode="&#xe61b;" d="M473.293 485.376l-368.794 253.389c-29.286 19.61-53.299 5.222-53.299-32v-491.981c0-37.12 24.013-51.507 53.299-32l368.794 253.491c0 0 14.285 10.189 14.285 24.474 0 14.336-14.285 24.627-14.285 24.627zM952.32 460.749c0-14.285-14.285-24.474-14.285-24.474l-368.794-253.491c-29.286-19.507-53.299-5.12-53.299 32v491.981c0 37.222 24.013 51.61 53.299 32l368.742-253.389c0 0 14.336-10.291 14.336-24.627z" />
<glyph unicode="&#xe61c;" d="M765.901 738.765l-368.794-253.389c0 0-14.285-10.291-14.285-24.627s14.285-24.525 14.285-24.525l368.794-253.491c29.286-19.456 53.299-5.069 53.299 32.051v491.981c0 37.222-24.013 51.61-53.299 32zM307.2 768h-51.2c-28.314 0-51.2-2.458-51.2-30.72v-552.96c0-28.262 22.886-30.72 51.2-30.72h51.2c28.314 0 51.2 2.458 51.2 30.72v552.96c0 28.262-22.886 30.72-51.2 30.72z" />
<glyph unicode="&#xe61d;" d="M626.893 485.376l-368.794 253.389c-29.286 19.61-53.299 5.222-53.299-32v-491.981c0-37.12 24.013-51.507 53.299-32l368.794 253.491c0 0 14.285 10.189 14.285 24.474 0 14.336-14.285 24.627-14.285 24.627zM716.8 768h51.2c28.314 0 51.2-2.458 51.2-30.72v-552.96c0-28.262-22.886-30.72-51.2-30.72h-51.2c-28.314 0-51.2 2.458-51.2 30.72v552.96c0 28.262 22.886 30.72 51.2 30.72z" />
<glyph unicode="&#xe61e;" d="M512.051 573.44c-62.208 0-112.691-50.432-112.691-112.64s50.483-112.64 112.691-112.64c62.208 0 112.589 50.432 112.589 112.64s-50.381 112.64-112.589 112.64zM153.651 573.44c-62.208 0-112.691-50.432-112.691-112.64s50.483-112.64 112.691-112.64c62.208 0 112.589 50.483 112.589 112.64s-50.381 112.64-112.589 112.64zM870.451 573.44c-62.208 0-112.691-50.432-112.691-112.64s50.483-112.64 112.691-112.64c62.208 0 112.589 50.432 112.589 112.64s-50.381 112.64-112.589 112.64z" />
<glyph unicode="&#xe61f;" d="M448.186 595.175l-14.636-2.151v-238.464h38.738v120.092l6.672 5.597c3.661 3.228 9.686 7.316 13.346 9.255 9.473 4.733 27.334 4.733 34.648-0.216 11.191-7.103 12.055-13.129 12.055-76.618v-58.109h40.891v57.678c0 62.414-1.721 75.327-11.621 89.963-17 25.18-57.033 29.7-84.797 9.471-4.948-3.443-9.472-6.457-10.114-6.457-0.434 0-1.292 20.661-1.508 45.842-0.646 52.298 1.721 47.779-23.674 44.119zM948.363 569.996c-5.166-0.861-10.117-2.798-10.98-4.305-1.076-1.507-3.014-10.976-4.303-21.306-3.658-26.042-3.877-26.259-10.975-26.259-12.48 0-16.574-3.227-20.234-15.709-1.932-6.457-3.441-12.484-3.441-13.13s6.889-1.292 15.066-1.292h15.064v-46.272c0-25.396 1.076-51.003 2.367-57.247 6.029-27.979 39.816-40.033 72.314-25.609l9.041 4.086-3.229 11.41c-1.938 6.238-3.873 11.836-4.307 12.268-0.428 0.645-6.027-0.217-12.051-1.727-10.119-2.15-11.838-2.15-16.789 1.51l-5.377 4.092-0.646 48.849-0.436 48.642h38.742v32.283h-38.523l-0.646 25.396c-0.643 28.624 0 27.763-20.658 24.32zM11.717 508.443v-16.143h101.154v32.283h-101.154v-16.141zM149.457 508.443v-16.143h32.285v32.283h-32.285v-16.141zM309.583 522.216c-4.733-1.076-13.988-5.166-20.446-9.039-9.253-5.381-12.697-9.471-17.862-19.37-12.053-23.461-7.317-55.527 10.545-69.731l6.888-5.596-7.963-7.963c-9.901-9.898-12.697-21.521-7.748-32.926 1.723-4.305 4.95-8.826 7.102-10.332 3.874-2.369 3.229-3.227-7.102-13.777-12.483-12.48-15.282-20.229-12.915-36.371 2.153-13.34 13.13-25.609 28.841-31.635 10.331-4.092 16.572-4.953 38.094-4.953 56.82-0.213 89.103 21.523 89.318 60.26 0 16.145-5.382 25.4-19.157 32.285-11.835 5.812-19.152 7.104-56.816 9.473-16.787 1.072-31.207 3.012-32.929 4.518-1.722 1.291-3.014 5.166-3.014 8.395 0 10.113 5.165 12.27 30.131 13.342 32.715 1.291 49.932 9.9 60.908 30.778 3.658 6.885 4.52 12.051 4.303 25.825-0.213 9.47-0.645 19.585-1.075 22.598-0.645 4.735 0.431 5.596 8.609 7.533l9.254 1.938-0.646 12.912c-0.859 16.357-3.229 17.219-22.383 7.748-12.482-6.026-13.988-6.455-18.51-3.444-12.913 8.393-44.979 12.053-65.427 7.534zM348.107 493.591c11.406-4.734 15.281-10.762 16.142-26.042 0.863-12.912 0.646-13.772-6.67-21.736-7.103-7.748-8.179-8.179-22.169-9.038-17.648-0.863-27.332 3.872-32.282 15.71-11.838 28.623 15.28 53.806 44.98 41.106zM372.213 349.392c15.496-6.67 10.976-25.607-8.608-35.723-9.040-4.521-13.559-5.381-30.132-5.381-22.813 0-32.067 3.873-36.587 14.848-3.873 9.256-0.862 20.879 7.102 27.336 5.596 4.301 7.317 4.52 33.359 3.225 15.927-0.645 30.563-2.58 34.866-4.305zM653.078 521.14c-35.729-9.469-56.172-39.601-56.172-82.646 0-23.242 4.305-38.949 15.279-54.881 27.549-40.027 101.799-41.104 131.932-1.936 21.949 28.625 22.812 80.708 1.721 111.485-17.648 25.608-57.035 37.446-92.76 27.977zM691.603 492.3c18.293-5.166 28.191-24.105 28.191-53.807 0-9.037-1.508-21.305-3.229-27.113-10.973-37.018-62.629-38.094-75.111-1.508-4.521 13.127-4.521 44.12-0.219 57.032 7.323 21.305 28.196 31.852 50.367 25.395zM814.492 521.354c-25.826-7.316-39.17-23.458-39.17-46.917 0-26.258 10.978-38.092 45.416-48.854 23.887-7.531 31.633-11.838 34.861-20.018 3.662-8.609-0.859-16.57-10.975-20.229-8.822-3.227-31.854-1.938-46.916 2.795-16.143 4.734-17.217 4.521-21.094-9.252-3.445-11.621-3.445-12.271 0.43-15.064 13.988-10.119 58.971-13.777 80.277-6.242 22.383 7.748 36.588 26.471 36.801 47.992 0 25.182-10.76 36.373-46.27 47.995-8.18 2.798-18.725 6.672-23.031 8.824-13.127 6.672-16.143 17.002-7.531 25.396 7.318 6.672 23.029 7.964 43.26 3.443 9.256-1.937 17.865-3.229 19.154-2.583 1.506 0.646 4.090 6.026 5.596 12.269 2.801 10.545 2.582 11.622-1.076 14.42-10.974 7.963-50.361 11.406-69.732 6.024zM11.717 439.573v-16.142h170.025v32.282h-170.025v-16.141zM11.717 371.775v-15.064h66.719v30.133h-66.719v-15.068zM115.023 371.775v-15.064h66.719v30.133h-66.719v-15.068z" />
<glyph unicode="&#xe621;" d="M129.997-51.2h177.203l71.987 189.338-151.859 51.405-97.331-240.742zM644.813 138.138l71.987-189.338h177.203l-97.331 240.742-151.859-51.405zM921.6 870.4h-332.8l-25.6 102.4h-102.4l-25.6-102.4h-332.8c-28.314 0-51.2-22.886-51.2-51.2v-563.2c0-28.262 22.886-51.2 51.2-51.2h819.2c28.314 0 51.2 22.938 51.2 51.2v563.2c0 28.262-22.886 51.2-51.2 51.2z" />
<glyph unicode="&#xe624;" d="M921.6 870.4h-819.2c-56.32 0-102.4-46.080-102.4-102.4v-614.4c0-56.32 46.080-102.4 102.4-102.4h819.2c56.32 0 102.4 46.080 102.4 102.4v614.4c0 56.32-46.080 102.4-102.4 102.4zM230.4 780.8c21.197 0 38.4-17.203 38.4-38.4s-17.203-38.4-38.4-38.4c-21.197 0-38.4 17.203-38.4 38.4s17.203 38.4 38.4 38.4zM89.6 742.4c0 21.197 17.203 38.4 38.4 38.4s38.4-17.203 38.4-38.4c0-21.197-17.203-38.4-38.4-38.4s-38.4 17.203-38.4 38.4zM921.6 153.6h-819.2v460.8h819.2v-460.8zM921.6 716.8h-614.4v51.2h615.373l-0.973-51.2z" />
<glyph unicode="&#xe625;" d="M424.653 102.502c-22.272 0-43.366 10.394-56.883 28.314l-182.938 241.715c-23.808 31.386-17.613 76.083 13.824 99.891 31.488 23.91 76.186 17.613 99.994-13.824l120.371-158.925 302.643 485.99c20.838 33.382 64.87 43.622 98.355 22.784 33.434-20.787 43.725-64.819 22.835-98.304l-357.581-573.952c-12.39-20.019-33.843-32.512-57.344-33.587-1.126-0.102-2.15-0.102-3.277-0.102z" />
<glyph unicode="&#xe626;" d="M292.813 217.6c-12.083 0-24.269 4.25-33.997 12.902l-259.072 230.298 273.459 243.098c21.094 18.688 53.453 16.896 72.243-4.25s16.896-53.504-4.25-72.294l-187.341-166.554 172.954-153.702c21.146-18.79 23.040-51.149 4.25-72.294-10.086-11.418-24.166-17.203-38.246-17.203zM750.797 217.702l273.459 243.098-259.072 230.298c-21.146 18.79-53.504 16.896-72.243-4.25-18.79-21.146-16.896-53.504 4.25-72.294l172.954-153.754-187.341-166.502c-21.146-18.79-23.040-51.149-4.25-72.294 10.086-11.418 24.166-17.203 38.246-17.203 12.083 0 24.269 4.25 33.997 12.902zM511.283 145.152l102.4 614.4c4.659 27.904-14.182 54.272-42.086 58.931-28.006 4.71-54.323-14.182-58.88-42.086l-102.4-614.4c-4.659-27.904 14.182-54.272 42.086-58.931 2.867-0.461 5.632-0.666 8.448-0.666 24.576 0 46.285 17.766 50.432 42.752z" />
<glyph unicode="&#xe628;" d="M897.946 837.683c20.173 27.904 23.654 83.917 23.654 83.917h-819.2c0 0 3.482-56.013 23.654-83.917l334.746-428.083v-307.2h-102.4c-102.4 0-102.4-102.4-102.4-102.4h512c0 0 0 102.4-102.4 102.4h-102.4v307.2l334.746 428.083zM481.28 665.6c0 45.312 36.659 81.92 81.92 81.92s81.92-36.608 81.92-81.92c0-45.21-36.659-81.92-81.92-81.92s-81.92 36.71-81.92 81.92z" />
<glyph unicode="&#xe62b;" d="M169.062 346.214c23.757-96.205 53.965-138.291 154.726-182.374 100.813-44.032 148.685-92.16 188.211-92.16 39.475 0 84.378 42.086 185.139 86.221 100.813 44.083 73.882 57.498 97.638 153.702l-282.778-137.523-342.938 172.134zM998.963 597.197l-426.24 238.694c-33.382 18.688-88.064 18.688-121.446 0l-426.291-238.694c-33.382-18.688-33.382-49.306 0-67.994l426.24-238.694c33.382-18.688 88.064-18.688 121.446 0l275.558 154.317-298.803 69.99c-11.52-2.816-24.166-4.403-37.427-4.403-53.862 0-97.485 25.907-97.485 57.907 0 32.102 43.674 58.010 97.485 58.010 41.779 0 77.312-15.718 91.136-37.581l316.518-103.885 79.309 44.39c33.331 18.637 33.331 49.254 0 67.942zM868.71 144.896c-3.328-19.712 65.69-52.122 72.243 5.478 29.645 259.686-21.299 334.387-21.299 334.387l-71.424-39.987c0 0.051 60.57-57.6 20.48-299.878z" />
<glyph unicode="&#xe62c;" d="M880.128 760.064c-85.606 78.541-224.41 78.541-310.016 0l-58.112-53.35-58.163 53.35c-85.606 78.541-224.358 78.541-309.965 0-96.307-88.422-96.307-231.424 0-319.795l368.128-337.869 368.128 337.869c96.256 88.371 96.256 231.424 0 319.795z" />
<glyph unicode="&#xe62d;" d="M721.408 858.47c-58.368 42.086-131.686 63.13-219.955 63.13-67.123 0-123.802-14.797-169.83-44.442-73.062-46.387-111.872-125.184-116.582-236.288h169.318c0 32.41 9.472 63.488 28.314 93.594 18.893 30.003 50.944 45.005 96.154 45.005 45.978 0 77.67-12.186 94.925-36.506 17.357-24.422 26.010-51.405 26.010-80.998 0-25.805-12.902-49.408-28.518-70.81-8.55-12.493-19.814-24.013-33.843-34.509 0 0-91.802-58.88-132.096-106.189-23.347-27.392-25.446-68.506-27.546-127.386-0.102-4.198 1.485-12.902 16.128-12.902 14.694 0 118.579 0 131.635 0 13.107 0 15.821 9.677 15.974 14.029 0.922 21.402 3.277 32.41 7.219 44.8 7.373 23.398 27.546 43.776 50.125 61.389l46.592 32.102c42.086 32.819 75.622 59.699 90.47 80.794 25.293 34.611 43.11 77.312 43.11 128-0.051 82.688-29.235 144.998-87.603 187.187zM498.739 208.691c-58.317 1.792-106.445-38.605-108.288-101.888-1.792-63.181 43.93-105.011 102.298-106.701 60.877-1.792 107.725 37.222 109.619 100.506 1.741 63.283-42.701 106.291-103.629 108.083z" />
<glyph unicode="&#xe62e;" d="M841.318 204.8c-104.704 261.478-226.918 330.394-226.918 460.8v153.6h25.6c14.131 0 25.6 11.469 25.6 25.6v51.2c0 14.131-11.469 25.6-25.6 25.6h-256c-14.131 0-25.6-11.469-25.6-25.6v-51.2c0-14.131 11.469-25.6 25.6-25.6h25.6v-153.6c0-130.406-122.214-199.322-226.918-460.8-33.331-83.2-118.938-204.8 329.318-204.8s362.65 121.6 329.318 204.8zM758.528 115.149c-35.942-10.752-107.469-22.989-246.528-22.989s-210.586 12.237-246.528 22.989c-12.749 3.789-17.715 18.586-13.21 32.154 11.264 34.304 32.512 93.594 72.243 159.795 97.075 161.741 197.786-25.446 281.6-25.446s60.826 79.923 93.389 25.446c39.629-66.253 60.979-125.491 72.243-159.795 4.506-13.568-0.461-28.314-13.21-32.154z" />
<glyph unicode="&#xe62f;" d="M1011.405 172.493c-12.646 18.995-89.805 134.707-89.805 134.707v460.8c0 56.422-46.080 102.4-102.4 102.4h-614.4c-56.371 0-102.4-45.978-102.4-102.4v-460.8c0 0-77.158-115.712-89.805-134.707-12.595-18.893-12.595-29.798-12.595-44.493v-25.6c0-25.6 25.6-51.2 51.149-51.2h921.702c25.549 0 51.149 25.6 51.149 51.2v25.6c0 14.694 0 25.6-12.595 44.493zM358.4 153.6l30.72 51.2h245.76l30.72-51.2h-307.2zM819.2 358.4h-614.4v409.6h614.4v-409.6z" />
<glyph unicode="&#xe630;" d="M367.923-8.806c40.397-26.112 87.091-43.776 144.077-42.394 56.883-1.382 103.68 16.282 144.077 42.394l-0.87 111.206h-286.413l-0.87-111.206zM650.086 153.6c0 223.078 237.056 299.418 219.29 521.626-11.162 140.186-106.138 297.472-357.376 297.472s-346.214-157.286-357.427-297.523c-17.766-222.157 219.341-298.496 219.341-521.574h276.173zM256 665.6c10.598 133.018 108.186 204.8 256 204.8 147.763 0 238.285-70.195 248.883-203.213 5.786-72.909-36.096-121.498-92.621-201.011-41.677-58.675-82.074-119.962-105.062-210.176h-102.4c-22.989 90.214-63.386 151.501-105.114 210.227-56.474 79.462-105.523 126.464-99.686 199.373z" />
<glyph unicode="&#xe631;" d="M402.381 220.621l-41.472-41.216c-35.891-35.584-94.362-35.584-130.304 0-17.203 17.101-26.675 39.885-26.675 64.102s9.523 46.899 26.675 64.102l152.576 151.296c31.59 31.386 91.085 77.568 134.451 34.56 19.917-19.763 52.019-19.661 71.834 0.256 19.712 19.917 19.61 52.070-0.307 71.782-73.626 73.114-182.579 59.597-277.453-34.56l-152.576-151.347c-36.608-36.301-56.73-84.685-56.73-136.090 0-51.507 20.173-99.789 56.73-136.090 37.683-37.376 87.142-56.115 136.653-56.115s99.021 18.688 136.653 56.115l41.523 41.216c19.917 19.712 20.019 51.814 0.256 71.68-19.814 19.866-51.917 19.968-71.834 0.307zM864.819 808.602c-79.206 78.541-189.901 82.79-263.117 10.086l-51.661-51.302c-19.917-19.763-20.070-51.866-0.307-71.731 19.763-19.917 51.866-20.019 71.782-0.256l51.712 51.251c37.888 37.683 87.603 22.067 120.115-10.086 17.203-17.152 26.726-39.885 26.726-64.102s-9.523-46.95-26.726-64.051l-162.816-161.485c-74.445-73.779-109.363-39.219-124.262-24.422-19.917 19.763-52.019 19.61-71.731-0.256-19.763-19.917-19.661-52.070 0.256-71.731 34.202-33.894 73.216-50.688 114.074-50.688 50.022 0 102.912 25.19 153.242 75.11l162.816 161.434c36.454 36.352 56.678 84.685 56.678 136.090 0 51.456-20.224 99.789-56.781 136.141z" />
<glyph unicode="&#xe632;" d="M874.574 716.955h-160.11l-113.116-113.124h160.11zM512.664 603.831l113.124 113.124h-160.066l-113.168-113.124zM761.732 273.987h-499.464v328.77l114.17 114.198h-160.114l-67.286-67.302v-488.894h725.924v443.072h-113.23z" />
<glyph unicode="&#xe633;" d="M674.944 633.405l146.864 146.864h-157.398l-152.416-152.404-152.4 152.404h-157.404l146.876-146.864h-199.16v-535.96h262.048l100.042 100.056 100.058-100.056h262.048v535.96h-199.158zM511.992 354.975l-146.158-146.21h-104.624v313.33h501.572v-313.332h-104.622l-146.168 146.212z" />
<glyph unicode="&#xe634;" d="M693.758 301.801h89.638v215.224l-100.99 100.988-63.384-63.384 74.736-74.738v-178.090zM783.632 256.863h-312.668l-74.736 74.738 31.692 31.692 61.73-61.728h127.002l-125.112 125.35 31.93 31.93 125.112-125.114v127.004l-61.49 61.494 31.458 31.456-155.39 156.096h-312.192l89.402-89.4v-0.238h185.424l65.514-65.514-95.788-95.786-65.514 65.512v50.85h-89.636v-87.982l155.15-155.15-63.148-63.148 100.988-100.99h439.67l-89.398 88.928z" />
<glyph unicode="&#xe635;" d="M542.614 766.017l-185.864-60.152 402.558-130.254v-256.876l-268.254-86.742-226.362 73.188v251.626l218.766-70.802 185.864 60.114-403.142 130.47-115.904-37.504v-417.15l340.778-110.238 382.67 123.8v423.362z" />
<glyph unicode="&#xe636;" d="M149.266 850.857l66.022-741.628 296.268-82.372 297.086 82.486 66.092 741.514h-725.468zM286.438 674.857l-2.174 24.402h227.422v-90.958h-128.166l8.3-93.14h119.866v-90.958h-202.926l-22.322 250.654zM720.582 490.733l-21.342-239.462-1.366-15.366-186.292-51.724-186.040 51.724-12.724 142.816h91.17l6.466-72.542 101.232-27.324 101.294 27.38 10.542 117.966h-111.522v90.958h210.798l-2.216-24.426zM737.022 674.857l-4.136-46.112-1.822-20.446h-219.064v90.958h227.194l-2.172-24.4z" />
<glyph unicode="&#xe637;" d="M737.28 512h-296.96c-28.262 0-30.72-22.886-30.72-51.2s2.458-51.2 30.72-51.2h296.96c28.262 0 30.72 22.886 30.72 51.2s-2.458 51.2-30.72 51.2zM839.68 256h-399.36c-28.262 0-30.72-22.886-30.72-51.2s2.458-51.2 30.72-51.2h399.36c28.262 0 30.72 22.886 30.72 51.2s-2.458 51.2-30.72 51.2zM440.32 665.6h399.36c28.262 0 30.72 22.886 30.72 51.2s-2.458 51.2-30.72 51.2h-399.36c-28.262 0-30.72-22.886-30.72-51.2s2.458-51.2 30.72-51.2zM276.48 512h-92.16c-28.262 0-30.72-22.886-30.72-51.2s2.458-51.2 30.72-51.2h92.16c28.262 0 30.72 22.886 30.72 51.2s-2.458 51.2-30.72 51.2zM276.48 256h-92.16c-28.262 0-30.72-22.886-30.72-51.2s2.458-51.2 30.72-51.2h92.16c28.262 0 30.72 22.886 30.72 51.2s-2.458 51.2-30.72 51.2zM276.48 768h-92.16c-28.262 0-30.72-22.886-30.72-51.2s2.458-51.2 30.72-51.2h92.16c28.262 0 30.72 22.886 30.72 51.2s-2.458 51.2-30.72 51.2z" />
<glyph unicode="&#xe63a;" d="M898.304 180.89l-193.485 193.485c29.184 47.872 45.978 104.192 45.978 164.352 0 174.95-151.603 326.502-326.554 326.502-174.95 0.051-316.723-141.773-316.723-316.723 0-174.899 151.603-326.502 326.502-326.502 58.214 0 112.64 15.821 159.488 43.213l194.509-194.611c19.046-18.995 49.92-18.995 68.915 0l48.282 48.282c18.995 18.995 12.083 43.008-6.912 62.003zM205.005 548.506c0 121.139 98.15 219.29 219.238 219.29 121.139 0 229.069-107.878 229.069-229.069 0-121.088-98.202-219.29-219.29-219.29-121.139 0.051-229.018 107.981-229.018 229.069z" />
<glyph unicode="&#xe63d;" d="M331.89 541.779h-126.938l-54.89-277.886h65.184l13.724 72.046h61.752c58.32-3.434 123.504 44.594 123.504 126.932 0 48.030-27.446 75.476-82.336 78.908zM283.858 387.399h-41.168l17.156 102.92h44.598c24.014 0 41.168-10.292 41.168-30.878-3.432-58.32-30.876-68.612-61.754-72.042zM561.746 541.779h-61.754l13.726 72.042h-65.186l-54.888-277.882h65.182l30.874 154.38h51.458c24.022 0 24.022-10.292 20.59-27.45l-24.014-126.932h68.614l24.014 140.656c6.858 34.308-13.726 61.754-68.616 65.186zM791.6 541.779h-126.936l-54.894-277.888h65.188l13.718 72.046h61.754c58.32-3.434 123.508 44.594 123.508 126.932 0 48.032-27.446 75.478-82.338 78.91zM743.57 387.399h-41.168l17.152 102.92h44.6c24.018 0 41.17-10.292 41.17-30.878-3.434-58.32-30.876-68.612-61.754-72.042z" />
<glyph unicode="&#xe63e;" d="M839.68 512h-655.36c-28.262 0-30.72-22.886-30.72-51.2s2.458-51.2 30.72-51.2h655.36c28.262 0 30.72 22.886 30.72 51.2s-2.458 51.2-30.72 51.2zM839.68 307.2h-655.36c-28.262 0-30.72-22.886-30.72-51.2s2.458-51.2 30.72-51.2h655.36c28.262 0 30.72 22.886 30.72 51.2s-2.458 51.2-30.72 51.2zM184.32 614.4h655.36c28.262 0 30.72 22.886 30.72 51.2s-2.458 51.2-30.72 51.2h-655.36c-28.262 0-30.72-22.886-30.72-51.2s2.458-51.2 30.72-51.2z" />
<glyph unicode="&#xe640;" d="M717.005 972.8h-410.010c-56.422 0-102.195-45.773-102.195-102.195v-819.558c0-56.474 45.773-102.246 102.195-102.246h409.958c56.474 0 102.246 45.773 102.246 102.195v819.61c0 56.422-45.773 102.195-102.195 102.195zM512 0c-35.328 0-64 22.886-64 51.2s28.672 51.2 64 51.2 64-22.886 64-51.2-28.672-51.2-64-51.2zM716.8 153.6h-409.6v716.8h409.6v-716.8z" />
<glyph unicode="&#xe642;" d="M752.128 836.557c-96.973 70.605-165.99 69.069-192.205 64.819-7.373-1.178-13.568-5.427-17.92-11.418l-352.41-486.246c-14.182-19.558-22.374-42.803-23.654-66.918l-15.155-287.949c-1.075-20.736 19.558-35.738 38.912-28.314l269.107 102.912c22.682 8.704 42.394 23.808 56.627 43.469l352.256 486.093c4.557 6.298 6.4 13.978 5.12 21.658-4.301 26.931-24.934 92.262-120.678 161.894zM459.622 180.992l-104.602-40.397c-4.096-1.587-8.653-0.307-11.315 3.174-13.466 17.152-29.491 34.15-55.040 52.736-25.549 18.534-46.643 28.57-67.072 36.147-4.096 1.536-6.707 5.427-6.451 9.83l6.246 111.923 28.109 38.656c0 0 62.925 8.653 145.050-51.098 82.022-59.699 93.235-122.266 93.235-122.266l-28.16-38.707z" />
<glyph unicode="&#xe643;" d="M646.592 438.857c0-74.333-60.259-134.592-134.592-134.592s-134.592 60.259-134.592 134.592c0 74.333 60.259 134.592 134.592 134.592s134.592-60.259 134.592-134.592zM511.194 599.229v0.010h325.25c-59.13 119.386-182.192 201.484-324.444 201.484-115.158 0-217.744-53.798-284.018-137.624l124.084-212.198c6.14 82.682 74.97 147.91 159.128 148.328zM512 278.479c-69.404 0-128.504 44.086-150.842 105.778l-149.76 256.112c-38.682-57.598-61.264-126.916-61.264-201.512 0-182.148 134.586-332.836 309.736-358.112l124.848 215.126c-21.83-11.12-46.538-17.392-72.718-17.392zM847.988 573.449h-248.746c44.018-28.592 73.136-78.188 73.136-134.592 0-27.734-7.042-53.828-19.434-76.586l0.094-0.054-165.058-284.41c7.94-0.522 15.946-0.814 24.018-0.814 199.854 0 361.866 162.012 361.866 361.866 0.002 47.566-9.194 92.986-25.876 134.59z" />
<glyph unicode="&#xe644;" d="M870.174 422.205c0 55.998-13.084 108.788-36.214 155.238 6.51 17.408 14.214 41.184 22.562 73.228 26.99 103.536-35.090 165.206-130.346 155.152-57.852-6.104-112.316-22.626-164.974-47.332-4.25 0.174-8.518 0.288-12.81 0.288-158.428 0-290.112-119.756-316.832-277.442 66.196 100.012 162.762 153.014 162.762 153.014-65.922-72.24-122.792-143.324-165.022-218.252-0.806-1.342-1.602-2.702-2.376-4.092-35.246-63.466-59.91-129.77-70.526-201.946-14.556-98.97 32.994-151.842 134.566-136.67 34.908 5.22 98.138 37.104 116.052 46.408 42.678-21.87 90.648-34.166 141.376-34.166 140.102 0 259.272 93.664 303.45 224.382h-174.162c-24.712-45.090-71.16-75.474-124.41-75.474-76.876 0-139.604 63.302-143.168 142.788h457.224c1.868 14.686 2.848 29.658 2.848 44.876zM292.914 97.875c-54.32-5.984-124.472 55.922-44.514 202.402 25.798-69.394 72.966-127.612 133.054-165.83-16.622-9.768-59.264-33.35-88.54-36.572zM411.158 477.281c9.094 73.642 69.228 130.55 142.11 130.55 72.88 0 133.016-56.908 142.11-130.55h-284.22zM668.9 734.357c135.68 66.53 184.978-4.53 170.072-76.974-2.054-9.978-9.512-36.522-16.114-59.428-35.818 61.070-89.74 109.254-153.958 136.402z" />
<glyph unicode="&#xe645;" d="M753.63 706.143c-1.986 1.96-3.998 3.898-6.032 5.812 2.004-1.934 4.016-3.87 6.032-5.812zM166.614 511.713c0 0-1.022-1.252-2.562-3.334-0.218-1.138-0.448-2.278-0.654-3.418 0.968 2.694 2.034 4.978 3.216 6.752zM268.364 676.025c0.658 0.67 1.302 1.352 1.966 2.016 30.664 30.664 66.37 54.738 106.124 71.55 41.148 17.404 84.866 26.23 129.942 26.23 42.546 0 83.886-7.874 122.998-23.392 22.842-3.948 53.29-11.546 78.664-25.97-56.932 40.432-126.522 64.202-201.662 64.202-97.42 0-185.496-39.968-248.76-104.384 2.942-3.58 6.488-7.030 10.728-10.252zM392.144 413.785c-2.426 2.022-4.504 4.184-6.272 6.438-0.594-4.98-0.99-10.338-0.988-15.964-0.002-10.48 1.31-21.796 4.89-33.012 3.586-11.222 9.412-22.352 18.594-32.682 6.124-6.886 13.758-13.43 23.306-19.376l-0.534-0.86c17.93-0.324 47.112 0.020 61.9 4.95 22.254 7.418 57.864 35.61 57.864 35.61 8.902 8.904 19.292 4.452 28.192 4.452 8.904 0 11.874 13.354 0 26.708-11.87 13.354-53.414 26.706-84.57 5.934-31.162-20.774-75.674-4.454-102.382 17.802zM413.652 609.601c-1.986-7.394-3.708-16.78-3.702-26.984 0.002-10.302 1.726-21.38 6.572-32.28 3.888-8.744 7.556-15.156 10.892-20.306 2.348-3.618 4.532-6.608 6.578-9.392 4.178 3.844 9.060 7.702 13.052 10.364 8.902 5.934 43.028 22.256 47.48 26.708s13.354 28.192 5.934 35.61c-7.418 7.42-54.898 2.968-69.736 5.936-6.25 1.246-12.234 5.658-17.070 10.344zM423.234 464.419c0.044-0.12 0.068-0.186 0.068-0.186 0.058 0.116 0.106 0.236 0.162 0.352l-0.23-0.166zM862.496 531.003c0-12.062-10.892-28.964-13-32.12 0.438 1.122 1.128 4.654 1.128 15.796 0 16.322 4.456 57.868-16.32 103.864-20.774 45.996-51.932 68.252-51.932 68.252v-10.384c-4.452 14.836-45.996 43.028-45.996 43.028v-14.838c74.188-68.25 81.608-115.73 81.608-115.73-13.354 43.028-51.934 75.67-84.576 106.83-32.64 31.158-100.894 47.478-100.894 47.478 72.706-41.542 108.314-106.828 108.314-106.828-37.096 35.61-66.772 32.64-66.772 32.64 22.258-16.32 32.644-34.124 53.416-66.77 20.774-32.642 19.29-109.796 19.29-109.796-10.384 25.224-31.158 35.61-31.158 35.61s4.454-44.512 7.42-69.736c2.964-25.222-10.386-72.704-10.386-72.704 0 17.806-10.384 22.258-10.384 22.258s2.966-10.386-11.874-57.868c-14.838-47.48-43.028-63.802-47.478-62.318-4.454 1.484 0 8.904 0 8.904s-7.42 5.934-17.804-10.388c-8.762-13.764-23.858-21.198-28.366-23.188 4.84 2.746 6.108 12.8 6.108 12.8s-10.384-5.934-57.868-13.354c-47.48-7.418-69.736 13.354-69.736 13.354 4.45 4.454 25.224 0 25.224 0 0 4.454-23.74 11.872-47.482 14.838-19.3 2.414-28.66 11.366-33.134 18.542-8.904 5.982-16.368 12.562-22.564 19.53-7.096 7.982-12.516 16.462-16.558 25.068-8.090 17.228-10.672 34.884-10.672 50.484 0.002 14.73 2.294 27.682 4.582 37.030 2.294 9.34 4.594 15.078 4.696 15.332v0l0.318-0.126c2.786 8.576 8.256 15.468 14.732 18.28-2.032 1.386-4.116 2.674-6.266 3.81-9.69 5.184-20.672 7.334-31.468 5.542-10.818-1.71-21.174-7.074-30.378-14.108-8.834-6.74-15.864-16.336-20.474-26.926-4.646-10.628-6.97-22.356-6.97-34.138-0.010-11.798 2.31-23.65 6.588-34.81 4.266-11.176 10.46-21.66 17.946-31.15 7.486-9.506 16.252-18.040 25.762-25.648-9.918 7.068-19.2 15.134-27.324 24.348-8.12 9.192-15.068 19.552-20.136 30.894-5.078 11.32-8.238 23.622-8.928 36.192-0.698 12.556 1.066 25.362 5.524 37.346 4.468 11.962 11.57 23.16 21.676 31.832 4.884 4.088 10.198 7.802 15.97 10.878 5.762 3.076 12.026 5.472 18.622 6.824 6.584 1.354 13.484 1.61 20.21 0.672 6.734-0.918 13.26-2.986 19.298-5.856 6.050-2.87 11.638-6.514 16.754-10.656 2.558-2.076 5.002-4.278 7.336-6.61 1.166-1.162 2.304-2.362 3.416-3.602 0.926-1.042 1.782-2.028 2.708-3.202 5.286 13.706 1.58 36.616 0.71 41.424-2.798 3.96-6.768 8.958-11.244 16.092-3.372 5.384-7.018 11.988-10.75 20.39-5.84 13.136-7.852 26.362-7.852 38.308 0.004 13.948 2.716 26.208 5.414 35.054 0.834 2.726 1.666 5.128 2.426 7.156 8.384 36.472 48.544 72.352 48.544 72.352-56.382 7.418-94.96-44.512-94.96-44.512-0.156 0.096-0.316 0.182-0.474 0.276-4-4.43-17.552-20.284-18.814-32.918 0 0 0.468 22.708 6.148 38.582-21.514 6.856-46.834 3.276-59.82 0.582l0.086-0.47c-13.308-2.386-25.46-7.508-36.258-13.954-10.792-6.442-20.208-14.202-27.944-21.718-15.454-15.002-24.18-29.012-24.27-29.168v0l0.002-0.006-0.418 0.258c-27.306-39.576-44.474-123.968-44.474-123.968 2.968 13.354 16.322 29.676 16.322 29.676-14.836-22.256-11.87-124.634-11.87-124.634 0 16.32 8.902 35.61 8.902 35.61 2.968-34.124 17.804-143.922 114.25-227.014s178.050-90.512 178.050-90.512c-19.288 5.938-23.738 14.84-23.738 14.84 62.318-25.224 100.894-20.774 100.894-20.774-10.388 5.934-11.874 10.386-11.874 10.386 66.772-2.968 155.798 20.772 176.57 35.61 20.772 14.84 38.578 44.514 38.578 44.514 53.416 25.222 90.51 77.156 100.894 103.864 10.388 26.708 0 54.898 0 54.898s0 1.482 25.224 57.868c25.222 56.38-0.002 136.506-0.002 136.506zM239.512 657.339c6.258 3.756 13.014 7.146 20.218 9.944-28.566 23.792-26.348 55.124-26.348 55.124-28.584-27.598-35.558-74.176-37.020-102.344 0.404 0.472 0.806 0.948 1.226 1.43 9.67 11.122 23.784 24.952 41.924 35.846z" />
<glyph unicode="&#xe646;" d="M656.872 434.195c0.012 2.674 0.024 5.366 0.024 8.090h-0.080c-0.958 101.452-11.4 166.3-25.886 209.418-7.606 22.61-16.35 39.254-25.422 51.928-9.060 12.674-18.454 21.352-27.040 28-10.316 7.97-22.524 12.236-33.692 14.618-11.184 2.372-21.376 2.832-27.832 2.834-2.074 0-3.74-0.046-4.946-0.1-1.202 0.052-2.874 0.1-4.94 0.1-6.454-0.002-16.654-0.462-27.832-2.834-11.17-2.38-23.378-6.646-33.692-14.618-8.588-6.648-17.982-15.324-27.038-28-13.61-19.026-26.458-46.922-35.888-90.6-8.846-40.972-14.728-95.884-15.428-170.746h-0.072c0-2.314 0.012-4.586 0.024-6.866-0.014-2.744-0.024-5.51-0.024-8.304h0.084c0.98-98.578 11.418-161.638 25.906-203.606 7.612-22.036 16.366-38.258 25.444-50.616 9.070-12.356 18.468-20.808 27.056-27.282 10.316-7.76 22.508-11.904 33.664-14.224 11.166-2.306 21.356-2.752 27.804-2.756 2.068 0 3.74 0.048 4.938 0.1 1.202-0.048 2.872-0.1 4.942-0.1 6.45 0.004 16.632 0.45 27.804 2.756 11.152 2.32 23.35 6.464 33.656 14.224 8.592 6.476 17.99 14.926 27.062 27.282 13.622 18.546 26.48 45.746 35.922 88.302 8.84 39.85 14.708 93.214 15.432 165.918h0.074c-0.002 2.386-0.014 4.734-0.024 7.082zM619.956 227.323c-7.292-21.106-15.51-36.208-23.822-47.522-8.316-11.312-16.718-18.866-24.688-24.888-8.314-6.292-18.948-10.050-29.040-12.128-10.086-2.084-19.572-2.522-25.462-2.518-1.488 0-2.744 0.030-3.724 0.060l-0.012 0.114h-0.004c-0.020 0-0.45-0.028-1.198-0.064-0.358 0.018-0.658 0.034-0.858 0.046l-0.286 0.014-0.060 0.004h-0.012l-0.010-0.114c-0.986-0.034-2.236-0.060-3.724-0.060-5.894-0.004-15.382 0.434-25.466 2.518-10.092 2.074-20.72 5.834-29.036 12.128-7.97 6.020-16.376 13.576-24.692 24.888-12.456 16.954-24.746 42.494-33.936 83.92-8.88 40.014-14.822 94.79-15.21 170.558 0.454 105.28 11.060 171.278 25.34 213.696 7.3 21.698 15.53 37.228 23.846 48.862 8.328 11.632 16.74 19.394 24.708 25.576 8.316 6.462 18.926 10.318 29.006 12.448 10.070 2.14 19.546 2.582 25.436 2.578 1.494 0 2.75-0.028 3.738-0.060l0.010-0.124h0.002c0.020 0.004 0.448 0.036 1.192 0.074 0.342-0.020 0.642-0.036 0.836-0.046l0.358-0.024 0.012 0.122c0.98 0.032 2.236 0.060 3.736 0.060 5.886 0.002 15.362-0.438 25.438-2.578 10.076-2.13 20.684-5.984 29.006-12.448 7.97-6.184 16.376-13.944 24.7-25.576 12.47-17.436 24.778-43.704 33.974-86.276 8.886-41.12 14.83-97.404 15.22-175.226-0.446-102.508-11.052-166.748-25.318-208.014zM857.834 564.709c-64.584 216.926-232.974 261.636-345.846 261.636-114.26 0-281.238-44.71-345.818-261.636-12.742-42.796-17.788-85.114-16.97-125.85-0.816-40.738 4.228-83.052 16.97-125.854 64.58-216.926 231.558-261.636 345.818-261.636 112.872 0 281.262 44.71 345.846 261.636 12.74 42.796 17.786 85.116 16.968 125.854 0.816 40.736-4.228 83.052-16.968 125.85zM591.224 134.173c-24.314-19.458-64.552-22.664-79.102-23.136-14.552 0.472-55.032 3.68-79.35 23.136-32.874 26.292-75.526 82.004-76.156 304.688 0.63 222.68 43.282 278.39 76.156 304.688 24.318 19.454 64.796 22.662 79.35 23.13 14.548-0.468 54.788-3.678 79.102-23.13 32.876-26.296 75.526-82.008 76.154-304.69-0.628-222.682-43.276-278.392-76.154-304.686z" />
<glyph unicode="&#xe647;" d="M261.486 800.031c-17.98-2.656-39.585-11.104-54.912-21.604-10.019-6.639-22.932-19.068-30.413-28.846-8.329-10.982-18.467-32.104-22.449-46.585l-3.38-12.068v-503.274l3.38-12.068c3.982-14.482 14.12-35.602 22.449-46.586 15.688-20.518 39.827-37.777 64.085-45.621 20.033-6.396 10.018-6.154 271.55-6.154 261.653 0 251.638-0.242 271.55 6.275 24.381 7.844 48.518 24.982 64.086 45.5 8.328 11.104 18.586 32.225 22.568 46.586l3.26 12.068v503.274l-3.381 12.068c-3.982 14.481-14.119 35.602-22.447 46.585-7.482 9.777-20.396 22.207-30.412 28.846-10.742 7.362-28.242 15.327-41.76 19.068l-11.826 3.26-247.412 0.121c-136.019 0.119-250.672-0.242-254.535-0.846zM598.693 666.911c38.137-6.277 64.207-18.828 81.225-39.104 7.238-8.569 15.688-25.585 19.189-38.258 2.172-8.327 2.533-13.033 2.654-33.793 0.121-21.844-0.121-25.103-2.654-33.672-7.365-25.586-23.416-45.259-49.363-60.465l-8.932-5.19 6.398-2.051c9.773-3.259 26.066-11.708 34.396-17.983 20.758-15.691 35.24-40.068 41.033-69.156 2.773-14.482 2.773-45.5-0.123-58.775-11.463-52.258-51.896-88.584-112.723-100.773-23.293-4.707-29.326-4.949-154.361-4.949h-122.256v467.189l126.481-0.484c113.204-0.363 127.688-0.603 139.034-2.534zM436.97 535.119v-55.036l58.292 0.483c54.672 0.604 58.775 0.724 67.586 3.138 27.516 7.483 39.465 23.294 39.465 52.26 0 22.206-7.846 36.567-24.859 45.018-15.086 7.48-31.381 9.050-95.467 9.171h-45.017v-55.033zM436.97 346.361v-64.088l63.722 0.484c71.57 0.484 73.982 0.725 91.604 9.293 20.277 9.898 29.326 26.068 29.326 52.502 0 34.031-13.516 52.859-44.654 62.273-8.809 2.775-10.498 2.775-74.464 3.26l-65.533 0.361v-64.086z" />
<glyph unicode="&#xe648;" d="M512 760.233c-14.834 0-29.452-0.916-43.814-2.65-0.958 3.552-2.574 6.826-4.722 9.688 7.6 7.768 12.226 18.024 12.226 29.27 0 24.244-21.474 43.898-47.962 43.898-26.486 0-47.962-19.654-47.962-43.898 0-19.436 13.808-35.91 32.932-41.686-0.25-1.516-0.414-3.062-0.414-4.65 0-1.3 0.12-2.572 0.288-3.826-151.288-43.192-262.044-182.47-262.044-347.624 0-199.636 161.84-361.474 361.476-361.474 199.638 0 361.476 161.838 361.476 361.474-0.004 199.638-161.842 361.478-361.48 361.478zM391.144 796.539c0 18.49 16.378 33.482 36.582 33.482 20.202 0 36.58-14.99 36.58-33.482 0-8.4-3.388-16.072-8.972-21.95-4.272 2.562-9.256 4.064-14.602 4.064-10.398 0-19.468-5.596-24.432-13.922-14.602 4.394-25.156 16.97-25.156 31.808zM512 94.181c-168.21 0-304.572 136.362-304.572 304.57 0 168.214 136.362 304.576 304.572 304.576s304.574-136.362 304.574-304.576c0-168.208-136.364-304.57-304.574-304.57zM724.578 269.979l19.876-12.64c25.126 41.212 39.6 89.624 39.6 141.414 0 18.26-1.806 36.092-5.238 53.34l-21.53-4.796c-2.71-0.602-5.392 1.040-5.976 3.67-0.588 2.628 1.14 5.252 3.86 5.856l21.574 4.802c-15.922 67.306-56.836 124.95-112.416 162.578l-14.040-22.074c-1.464-2.31-4.5-3.016-6.774-1.568-2.28 1.444-2.928 4.49-1.458 6.804l14.082 22.148c-41.79 26.16-91.194 41.3-144.138 41.3-17.408 0-34.426-1.654-50.922-4.78l5.604-25.174c0.602-2.698-1.042-5.358-3.672-5.942-2.628-0.586-5.25 1.124-5.85 3.82l-5.636 25.318c-68.244-15.49-126.744-56.632-164.82-112.762l22.308-14.182c2.342-1.488 3.066-4.538 1.622-6.81s-4.518-2.91-6.854-1.42l-22.396 14.238c-26.246-41.844-41.44-91.324-41.44-144.364 0-18.128 1.788-35.84 5.172-52.976l25.956 5.778c2.714 0.606 5.39-1.038 5.974-3.666s-1.142-5.254-3.854-5.852l-26.020-5.796c16.096-68.448 58.042-126.914 114.97-164.558l15.924 25.042c1.468 2.312 4.506 3.018 6.778 1.574 2.272-1.446 2.928-4.494 1.454-6.802l-15.934-25.060c41.26-25.208 89.748-39.736 141.634-39.736 18.976 0 37.506 1.952 55.39 5.646l-5.714 25.66c-0.6 2.694 1.046 5.358 3.674 5.942 2.628 0.582 5.25-1.128 5.848-3.822l5.704-25.614c67.5 16.524 125.118 58.224 162.314 114.604l-19.872 12.636c-2.342 1.486-3.064 4.536-1.624 6.808 1.452 2.27 4.524 2.906 6.86 1.416zM402.528 475.107l49.706-18.126c7.15 7.342 15.642 13.362 25.084 17.682v100.764l43.616-93.694c3.424-0.366 6.784-0.94 10.068-1.704l-7.306-6.854c-3.806 0.594-7.71 0.91-11.694 0.91-41.606 0-75.332-33.726-75.332-75.334 0-8.59 1.458-16.834 4.106-24.522l-5.294-8.802c-0.040 0.090-0.080 0.178-0.122 0.268h-99.486l93.338 43.452c1.324 10.648 4.634 20.682 9.582 29.698l-36.266 36.262zM348.874 199.861l134.154 222.974 187.956 176.29-134.15-222.976-0.954-0.898-187.006-175.39zM625.952 328.103l-48.712 18.628c-6.52-8.164-14.538-15.072-23.636-20.316l1.258 0.208-1.622-104.002-41.4 92.676c-7.18 0.016-14.138 0.948-20.786 2.664l7.184 6.738c4.464-0.826 9.060-1.276 13.762-1.276 41.608 0 75.332 33.728 75.332 75.328 0 11.624-2.636 22.622-7.332 32.45l4.906 8.156c0.092-0.158 0.188-0.306 0.278-0.466l101.862-1.588-91.642-40.938c-0.302-10.632-2.562-20.778-6.478-30.056l37.026-38.206zM511.152 422.073c-12.858-0.576-22.816-11.462-22.242-24.316 0.576-12.86 11.464-22.816 24.322-22.244 12.86 0.572 22.818 11.464 22.24 24.318-0.572 12.86-11.46 22.818-24.32 22.242z" />
<glyph unicode="&#xe649;" d="M512.54 286.603v-0.002zM151.776 847.389l65.566-735.392 294.216-81.672 295.036 81.792 65.63 735.27h-720.448zM736 679.185l-22.166-248.542h-0.002l-15.346-171.476-1.358-15.242-185.004-51.286-184.75 51.286-12.636 141.618h90.536l6.422-71.93 100.53-27.092 0.262 0.070 0.050 0.014 100.284 27.072 10.518 116.968-210.514-0.016-1.808 20.27-4.114 45.724-2.154 24.198 226.602 0.010 8.24 92.358h-345.14l-1.804 20.274-4.114 45.724-2.154 24.2h451.784l-2.164-24.202z" />
<glyph unicode="&#xe64a;" d="M257.716 766.569l-24.312-121.556h494.772l-15.442-78.522h-495.1l-23.982-121.554h494.77l-27.598-138.642-199.418-66.036-172.808 66.036 11.828 60.122h-121.558l-28.912-145.868 285.824-109.402 329.516 109.402 43.696 219.458 8.872 44.026 56.18 282.538h-616.328z" />
<glyph unicode="&#xe64b;" d="M1012.504 282.833c-3.476 29.15-18.486 51.774-41.146 69.504-26.244 20.524-56.948 28.972-89.712 30.308-26.704 1.086-52.814-2.88-77.978-12.020-7.18-2.606-14.22-5.678-21.442-8.592-0.966 1.754-1.974 3.432-2.826 5.174-7.416 15.168-16.368 29.658-18.352 47.052-1.408 12.35-3.124 24.694-0.198 36.906 2.82 11.752 6.514 23.304 9.97 34.9 1.78 5.97 0.544 9.314-5.158 12.002-1.986 0.938-4.136 1.75-6.288 2.064-14 2.032-27.8 0.87-41.362-3.074-4.796-1.396-8.292-4.086-9.356-9.398-0.608-3.048-1.85-5.966-2.702-8.972-3.552-12.5-6.060-25.246-11.784-37.158-14.356-29.88-30.736-58.632-47.512-87.174-1.812-3.080-3.72-6.1-6.014-9.846-5.888 12.322-12.172 23.372-14.072 36.336-2.148 14.65-3.852 29.288-0.206 43.836 2.716 10.848 6.26 21.494 9.524 32.204 1.552 5.086 0.832 7.76-3.772 10.44-2.328 1.354-4.964 2.556-7.588 2.944-14.52 2.148-28.818 1.028-42.824-3.506-4.348-1.406-6.626-4.216-7.956-8.698-3.904-13.216-7.23-26.752-12.712-39.322-22.192-50.884-45.020-101.49-67.826-152.106-4.76-10.564-10.34-20.764-15.704-31.048-1.364-2.616-3.342-4.91-5.036-7.352-1.366 1.608-1.886 2.712-1.88 3.808 0.040 6.51-0.738 13.202 0.504 19.49 3.754 19.020 8.070 37.938 12.624 56.788 3.758 15.568 8.132 30.988 12.306 46.456 1.4 5.178 1.426 10.018-2.298 14.36-6.246 7.298-19.302 8.898-27.052 3.28-0.842-0.608-1.818-1.036-3.422-1.938 0.294 2.468 0.45 4 0.656 5.524 1.63 11.836 1.962 23.628-1.286 35.284-4.048 14.524-14.416 22.884-29.484 22.418-7.026-0.216-14.396-1.418-20.908-3.976-27.354-10.722-48.386-29.708-66.284-52.548-1.622-2.068-3.766-3.966-6.058-5.232-23.142-12.828-46.366-25.508-69.566-38.228-8.666-4.75-17.336-9.496-25.836-14.152-6.926 6.614-13.23 13.464-20.372 19.284-21.812 17.788-43.984 35.14-65.954 52.732-19.47 15.596-38.338 31.832-52.772 52.48-10.738 15.364-17.652 32.168-18.314 51.156-0.846 24.2 6.028 46.316 18.346 66.9 15.76 26.336 37.254 47.472 60.894 66.61 25 20.24 52.038 37.428 80.062 53.11 39.212 21.944 79.536 41.37 122.778 54.198 44.336 13.152 89.318 20.682 135.724 15.43 18.244-2.064 35.946-6.242 52.22-15.154 12.452-6.822 22.668-15.76 27.422-29.726 4.684-13.748 4.548-27.68 1.292-41.63-6.596-28.27-22.072-51.578-41.56-72.4-31.948-34.132-70.924-57.378-114.808-72.724-25.32-8.856-51.37-14.42-78.12-16.664-21.832-1.828-43.206 0.104-63.878 7.7-13.694 5.032-25.606 12.73-35.198 23.894-1.716 2-3.906 4.168-7.096 2.292-3.122-1.836-3.68-4.818-2.63-7.826 1.748-5.010 3.366-10.22 6.098-14.702 6.854-11.236 16.86-19.392 27.862-26.386 21.146-13.44 44.774-17.964 69.28-19.018 37.188-1.604 73.462 3.944 109.23 13.92 51.060 14.24 95.46 39.388 131.068 79.072 29.65 33.038 50.822 70.328 55.36 115.352 2.216 21.972-0.14 43.508-10.432 63.55-11.154 21.724-28.904 36.69-50.112 47.818-30.836 16.18-64.176 22.566-98.596 24.43-11.49 0.002-22.986 0.004-34.476 0.006-41.682-2.030-81.974-10.77-121.138-25.020-29.646-10.788-58.72-22.934-86.942-37.032-61.474-30.704-118.712-67.442-165.728-118.36-23.424-25.37-43.252-53.216-54.656-86.178-3.338-9.648-5.386-19.914-7.778-29.892-0.202-0.842 0.722-1.638-1.326-2.456 0-4.694 0-9.388 0-14.084 2.048-3.608 2.286-7.214 3.212-10.814 6.046-23.468 18.49-43.604 33.912-61.974 21.968-26.172 48.592-47.244 76.15-67.056 23.908-17.188 48.158-33.986 72.16-51.044 4.116-2.924 7.942-6.296 12.418-9.888-3.852-2.076-7.086-3.916-10.414-5.6-31.676-16.068-62.158-34.076-90.254-55.896-16.93-13.148-33.302-27.124-44.868-45.388-18.602-29.376-25.192-60.672-11.326-94.082 4.048-9.756 10.23-18.196 18.94-24.42 2.82-2.014 5.988-4.020 9.288-4.802 8.464-1.994 17.094-3.294 25.652-4.872 8.088 0.004 16.174 0.012 24.26 0.016 26.836 2.388 51.258 11.582 73.322 26.812 34.498 23.804 57.738 55.724 67.734 96.696 7.262 29.772 7.56 59.58-1.004 89.222-0.796 2.748-1.792 5.444-2.836 8.112-1.042 2.66-2.262 5.25-3.706 8.572 18.32 10.538 36.664 21.088 55.004 31.634 0.274-0.23 0.548-0.466 0.82-0.7-0.992-3.28-2.060-6.538-2.966-9.846-6.536-23.876-10.88-48.16-9.316-72.944 1.664-26.394 9.034-51.104 24.484-73.168 12.492-17.844 42.274-18.512 55.554-0.6 4.714 6.356 9.276 13.004 12.712 20.1 8.966 18.524 17.274 37.368 25.838 56.088 0.37 0.802 0.71 1.616 1.492 3.416-0.618-8.864-1.334-16.644-1.666-24.438-0.518-12.168 0.198-24.27 4.358-35.844 3.56-9.908 9.61-17.298 20.956-18.604 7.758-0.894 13.942 2.664 19.646 7.164 8.914 7.028 16.148 15.716 21.524 25.588 15.208 27.928 30.822 55.688 44.61 84.32 14.916 30.972 27.952 62.85 41.8 94.336 0.76 1.732 1.436 3.5 2.288 5.59 3.274-12.86 5.552-25.448 9.754-37.364 4.876-13.836 10.916-27.336 17.492-40.46 3.11-6.202 2.744-10.232-1.566-15.424-18.052-21.756-35.784-43.78-53.544-65.78-3.924-4.86-7.844-9.796-11.104-15.104-1.98-3.228-3.292-7.148-3.848-10.912-1.062-7.188 3.376-14.11 11.068-15.768 7.020-1.51 14.496-2.072 21.66-1.548 24.778 1.822 47.276 10.524 67.16 25.256 25.764 19.092 34.036 45.136 27.794 76.008-1.692 8.376-4.676 16.528-7.58 24.596-1.308 3.64-1.39 6.196 0.982 9.586 20.6 29.42 38.202 60.63 54.572 92.556 0.648 1.26 1.308 2.518 2.442 3.866 5.308-27.606 13.292-54.204 27.592-78.336-7.298-7.038-14.524-13.408-21.052-20.432-14.388-15.472-26.88-32.276-33.384-52.756-2.8-8.828-4.956-17.802-3.706-27.25 1.938-14.644 13.942-24.164 28.348-20.832 30.832 7.126 57.444 21.66 76.896 47.4 13.090 17.324 14.284 36.65 8.792 56.904-1.496 5.5-3.288 10.92-5.204 17.236 7.604 2.356 15.024 5.192 22.692 6.946 39.836 9.086 79.234 7.5 117.616-6.884 22.408-8.4 40.516-22.452 51.246-44.572 13.116-27.028 5.872-52.682-19.612-69.76-2.38-1.596-5.096-2.852-7.064-4.848-1.212-1.226-1.934-3.672-1.644-5.356 0.172-0.986 2.77-2.22 4.268-2.208 8.372 0.068 15.164 4.452 21.692 8.972 16.336 11.302 27.136 26.514 29.688 46.538 0.072 0.576-0.768 1.108 1.28 1.658 0 4.436 0 8.868 0 13.304-2.040 0.544-1.18 1.076-1.246 1.65zM233.156 228.775c-2.67-35.676-18.83-64.6-45.254-88.016-14.866-13.178-31.912-22.548-51.764-25.844-7.206-1.196-14.572-1.48-21.556 1.504-9.956 4.256-12.194 13.092-12.38 22.52-0.3 15.008 4.956 28.572 12.17 41.484 9.41 16.832 23.204 29.658 37.926 41.644 23.206 18.894 48.374 34.88 74.146 49.962 0.428 0.252 0.924 0.384 1.944 0.798 3.98-14.72 5.876-29.258 4.768-44.050zM434.426 383.803c-1.882-11.394-4.234-22.792-7.56-33.836-11.508-38.22-26.276-75.248-42.252-111.784-2.952-6.756-7.246-12.928-10.98-19.332-0.582-0.996-1.436-1.856-2.264-2.678-4.622-4.566-9.012-4.322-11.35 1.65-2.718 6.948-4.392 14.376-5.832 21.726-0.966 4.94-0.734 10.116-1.038 15.184 0.31 35.948 11.28 68.624 29.89 99.034 7.676 12.544 16.030 24.496 28.782 32.432 3.924 2.434 8.322 4.4 12.762 5.648 6.798 1.91 10.974-1.236 9.846-8.048zM571.732 208.853c16.452 19.212 32.868 38.38 49.352 57.63 2.052-21.4-34.316-64.116-49.352-57.63zM729.36 247.631c-3.488-1.996-7.294-3.442-10.87-5.292-3.278-1.696-4.356 0.016-4.448 2.832-0.058 1.918 0.222 3.916 0.748 5.768 6.66 23.51 18.924 43.562 37.174 59.884 0.268 0.24 0.658 0.344 1.284 0.658 8.678-24.27-1.35-50.934-23.89-63.85z" />
<glyph unicode="&#xe64c;" d="M574.925 397.875c-81.050-80.998-174.95-158.515-212.070-121.395-53.094 53.094-85.862 99.379-203.008 5.222-117.094-94.106-27.136-156.877 24.32-208.282 59.392-59.392 280.781-3.174 499.61 215.603 218.778 218.829 274.842 440.218 215.398 499.61-51.456 51.507-113.92 141.414-208.026 24.32-94.157-117.094-47.923-149.862 5.274-203.008 36.966-37.12-40.499-131.021-121.498-212.070z" />
<glyph unicode="&#xe64d;" d="M244.429 190.106l-107.776-166.4 11.469-54.426 54.272 11.622 107.725 166.298c-11.469 6.144-22.835 12.698-33.843 19.968-11.162 7.219-21.811 14.95-31.846 22.938zM700.723 248.218c0.717 1.485 1.178 3.123 1.843 4.71 2.714 5.99 5.12 11.981 7.066 18.278 0.307 1.126 0.461 2.253 0.819 3.277 1.997 6.963 3.686 13.824 5.018 20.89 0 0.358 0 0.614 0 1.075 9.984 59.853-7.424 126.618-47.258 186.931l56.832 87.757c65.485-8.346 122.112 8.141 149.35 50.278 47.258 72.858-10.24 194.15-128.256 271.002-118.118 76.902-252.058 80.128-299.213 7.373-27.341-42.189-19.354-100.71 15.002-157.338l-56.934-87.757c-71.117 11.93-139.059 0.819-189.594-32.768-0.307-0.102-0.666-0.205-0.87-0.41-5.888-3.994-11.622-8.397-16.998-13.005-0.87-0.717-1.894-1.382-2.611-2.099-5.018-4.301-9.523-9.114-13.875-13.926-1.024-1.229-2.458-2.304-3.43-3.584-5.427-6.195-10.445-12.749-14.848-19.712-70.861-109.21-10.394-274.483 134.81-369.101 145.306-94.618 320.512-82.637 391.219 26.573 4.454 6.912 8.55 14.131 11.93 21.555zM658.995 758.067c-45.414 29.542-67.584 76.134-49.408 104.243 18.125 28.006 69.683 26.726 114.995-2.816 45.517-29.542 67.482-76.237 49.408-104.243s-69.53-26.726-114.995 2.816z" />
<glyph unicode="&#xe64e;" d="M308.254 705.007h120.042v-336.438c0-151.632-72.656-204.548-188.752-204.548-28.428 0-64.756 4.736-88.452 12.634l13.426 97.138c16.586-5.526 37.91-9.474 61.602-9.474 50.544 0 82.136 22.902 82.136 105.038v335.65zM532.522 295.913c31.59-16.588 82.136-33.172 133.468-33.172 55.286 0 84.504 22.902 84.504 58.444 0 32.376-25.272 52.122-89.242 74.234-88.456 31.592-146.892 80.556-146.892 158.742 0 90.822 76.606 159.534 201.386 159.534 60.81 0 104.248-11.852 135.84-26.854l-26.856-96.35c-20.532 10.264-59.232 25.272-110.56 25.272-52.126 0-77.398-24.482-77.398-51.336 0-33.958 29.218-48.962 98.72-75.818 93.976-34.748 137.416-83.712 137.416-159.53 0-89.242-67.92-165.060-214.026-165.060-60.812 0-120.838 16.588-150.84 33.17l24.48 98.724z" />
<glyph unicode="&#xe64f;" d="M150.342 850.593l65.826-738.324 295.392-82.002 296.206 82.12 65.894 738.208h-723.318zM423.232 659.397l-13.076-142.116 309.48-0.042-2.208-24.314-21.284-238.394-1.358-15.298-185.742-51.496-185.486 51.494-12.686 142.178h90.894l6.45-72.218 100.932-27.198 100.992 27.262 10.512 117.438-309.476 0.042 2.206 24.316 21.282 238.394 6.7 66.748h361.174l4.198-51.144 12.9-142.482h-90.9l-8.392 93.494-92.458 5.566h-16.486v0.124l-88.168-2.354z" />
<glyph unicode="&#xe650;" d="M519.42 190.501c-4.79 1.096-9.446 2.586-14.122 3.97-1.19 0.344-2.358 0.71-3.526 1.058-4.566 1.404-9.102 2.876-13.61 4.432-0.618 0.228-1.238 0.454-1.87 0.67-4.034 1.428-8.022 2.92-11.996 4.456-1.124 0.442-2.244 0.866-3.362 1.318-4.356 1.718-8.686 3.514-12.952 5.382-0.88 0.37-1.724 0.778-2.59 1.146-3.674 1.664-7.308 3.352-10.924 5.080-1.048 0.498-2.090 0.996-3.162 1.516-2.838 1.382-5.648 2.864-8.448 4.298-1.88 0.998-3.784 1.928-5.644 2.954-3.42 1.84-6.782 3.742-10.13 5.7-1.128 0.626-2.274 1.232-3.416 1.902-4.448 2.608-8.85 5.318-13.194 8.074-1.2 0.756-2.374 1.59-3.556 2.372-3.158 2.028-6.298 4.104-9.39 6.246-1.022 0.68-2.010 1.426-3.022 2.12-2.988 2.098-5.94 4.236-8.876 6.41-1.332 0.984-2.638 1.988-3.93 2.972-2.686 2.056-5.362 4.128-8.006 6.26-1.198 0.952-2.392 1.914-3.572 2.866-3.362 2.768-6.692 5.546-9.972 8.41-0.346 0.292-0.724 0.584-1.092 0.908-3.552 3.116-7.038 6.312-10.482 9.536-1.004 0.952-1.978 1.878-2.956 2.832-2.552 2.444-5.066 4.888-7.532 7.394-0.988 0.984-1.982 1.958-2.954 2.942-3.138 3.218-6.224 6.486-9.24 9.784-0.158 0.164-0.312 0.314-0.458 0.486-3.194 3.49-6.314 7.070-9.374 10.672-0.834 0.992-1.636 1.932-2.46 2.908-2.276 2.744-4.54 5.536-6.746 8.344-0.834 1.006-1.654 2.036-2.476 3.082-2.66 3.448-5.254 6.884-7.788 10.376-70.296 95.88-95.55 228.124-39.368 336.732l-49.8-63.166c-63.804-91.718-55.866-211.030-7.124-308.47 1.162-2.338 2.376-4.64 3.572-6.944 0.768-1.448 1.486-2.942 2.282-4.388 0.448-0.854 0.952-1.698 1.42-2.52 0.828-1.556 1.682-3.028 2.542-4.548 1.512-2.662 3.066-5.322 4.654-7.982 0.876-1.446 1.746-2.916 2.648-4.366 1.762-2.842 3.562-5.644 5.406-8.454 0.768-1.192 1.514-2.39 2.296-3.546 2.546-3.784 5.14-7.568 7.822-11.286 0.066-0.1 0.146-0.196 0.222-0.302 0.422-0.584 0.892-1.168 1.318-1.778 2.32-3.196 4.712-6.356 7.136-9.466 0.886-1.146 1.784-2.292 2.68-3.418 2.156-2.724 4.356-5.404 6.588-8.108 0.832-0.994 1.67-2.010 2.512-3.006 2.996-3.522 6.056-7.026 9.174-10.486 0.052-0.052 0.134-0.118 0.188-0.17 0.13-0.152 0.244-0.262 0.356-0.402 3.042-3.318 6.166-6.584 9.324-9.824 0.978-1.018 1.984-2.014 2.99-3.008 2.448-2.474 4.934-4.896 7.448-7.306 1.018-0.972 2.032-1.968 3.048-2.9 3.352-3.156 6.742-6.27 10.202-9.296 0.064-0.042 0.102-0.084 0.162-0.128 0.584-0.52 1.202-1.014 1.778-1.512 3.042-2.638 6.146-5.256 9.264-7.828 1.276-1.040 2.564-2.044 3.844-3.068 2.552-2.034 5.13-4.068 7.726-6.034 1.372-1.060 2.75-2.098 4.134-3.144 2.864-2.112 5.754-4.188 8.67-6.216 1.066-0.78 2.092-1.514 3.158-2.25 0.296-0.198 0.572-0.412 0.87-0.618 2.762-1.912 5.594-3.728 8.42-5.566 1.21-0.81 2.416-1.642 3.644-2.422 4.336-2.746 8.734-5.468 13.184-8.086 1.208-0.694 2.426-1.364 3.642-2.056 3.27-1.89 6.562-3.738 9.896-5.552 1.8-0.972 3.654-1.884 5.476-2.812 2.352-1.232 4.692-2.486 7.082-3.676 0.546-0.282 1.108-0.54 1.638-0.8 0.962-0.454 1.934-0.906 2.896-1.392 3.708-1.776 7.45-3.516 11.222-5.204 0.804-0.354 1.578-0.702 2.378-1.056 4.324-1.892 8.686-3.708 13.090-5.45 1.054-0.432 2.12-0.822 3.19-1.242 4.070-1.58 8.2-3.124 12.35-4.572 0.526-0.198 1.028-0.37 1.552-0.552 4.55-1.59 9.144-3.060 13.772-4.51 1.102-0.31 2.21-0.67 3.324-0.992 4.714-1.418 9.362-3.116 14.226-4.010 308.58-56.272 398.21 185.434 398.21 185.434-75.266-98.082-208.89-123.938-335.506-95.154zM408.266 440.609c6.914-9.908 14.578-21.702 23.75-29.658 3.324-3.664 6.804-7.234 10.356-10.752 0.898-0.912 1.81-1.794 2.73-2.692 3.442-3.344 6.952-6.626 10.572-9.828 0.15-0.108 0.282-0.258 0.432-0.37 0.038-0.040 0.076-0.062 0.102-0.106 4.004-3.516 8.146-6.898 12.352-10.216 0.936-0.712 1.86-1.46 2.806-2.196 4.216-3.22 8.514-6.398 12.918-9.426 0.134-0.1 0.25-0.196 0.378-0.284 1.946-1.35 3.924-2.604 5.892-3.89 0.952-0.616 1.848-1.276 2.8-1.846 3.146-2.024 6.334-3.992 9.578-5.872 0.458-0.282 0.91-0.522 1.358-0.78 2.79-1.624 5.622-3.202 8.464-4.734 0.99-0.564 2-1.062 3.010-1.58 1.958-1.016 3.924-2.062 5.922-3.070 0.298-0.128 0.608-0.272 0.894-0.388 4.068-2.010 8.168-3.934 12.354-5.764 0.894-0.398 1.822-0.744 2.73-1.112 3.348-1.43 6.726-2.822 10.126-4.122 1.442-0.55 2.9-1.068 4.332-1.588 3.090-1.144 6.18-2.194 9.304-3.244 1.41-0.454 2.794-0.906 4.206-1.338 4.432-1.386 8.822-3.126 13.444-3.894 238.256-39.47 293.256 143.972 293.256 143.972-49.576-71.41-145.6-105.486-248.062-78.89-4.55 1.2-9.038 2.508-13.496 3.912-1.362 0.412-2.698 0.854-4.052 1.298-3.168 1.038-6.316 2.12-9.44 3.254-1.432 0.528-2.86 1.046-4.262 1.59-3.42 1.32-6.804 2.674-10.154 4.090-0.918 0.402-1.846 0.754-2.74 1.162-4.208 1.832-8.348 3.756-12.434 5.776-2.102 1.032-4.162 2.11-6.232 3.178-1.194 0.616-2.394 1.23-3.594 1.846-2.652 1.446-5.288 2.936-7.886 4.452-0.616 0.356-1.266 0.69-1.884 1.070-3.228 1.884-6.406 3.826-9.552 5.828-0.97 0.614-1.908 1.286-2.882 1.922-2.068 1.348-4.144 2.712-6.182 4.094-4.394 3.032-8.666 6.208-12.876 9.418-0.972 0.77-1.946 1.516-2.902 2.284-44.846 35.416-80.398 83.804-97.3 138.676-17.718 56.912-13.892 120.792 16.794 172.636l-37.696-53.222c-46.148-66.412-43.638-155.3-7.644-225.528 6.038-11.778 12.82-23.192 20.41-34.068zM659.38 522.761c1.962-0.732 3.926-1.378 5.916-2.052 0.87-0.27 1.728-0.564 2.61-0.826 2.806-0.88 5.588-1.906 8.486-2.448 131.554-25.422 167.236 67.506 176.734 81.188-31.26-45.006-83.784-55.81-148.232-40.172-5.096 1.242-10.686 3.082-15.6 4.822-6.292 2.242-12.484 4.792-18.514 7.692-11.45 5.496-22.358 12.174-32.468 19.81-57.67 43.756-93.498 127.236-55.864 195.22l-20.368-28.066c-27.2-40.032-29.87-89.75-10.994-133.964 19.9-46.932 60.69-83.746 108.294-101.204z" />
<glyph unicode="&#xe652;" d="M992.666 952.064c-5.683 16.077-23.245 24.576-39.373 18.995s-24.627-23.296-19.046-39.424c47.565-136.704-46.848-238.797-118.835-293.478l-29.082 41.677c-9.779 13.978-31.642 25.6-48.64 25.805l-163.226-0.717c-16.998 0.307-42.24-7.475-56.166-17.306l-480.973-337.254c-23.296-16.384-28.928-48.486-12.646-71.885l218.573-312.73c16.384-23.296 42.547-20.48 65.894-4.198l480.973 337.306c13.824 9.779 29.798 30.874 35.43 47.002l51.098 161.024c5.632 16.077 2.202 40.602-7.578 54.579l-17.715 25.395c96.666 74.086 197.018 205.005 141.312 365.21zM768.87 472.934c-37.222-26.112-88.627-16.998-114.688 20.275-26.163 37.376-17.050 88.781 20.224 114.995 29.594 20.736 67.994 19.251 95.642-0.87-13.926-8.397-23.501-13.312-25.293-14.080-15.411-7.322-22.016-25.805-14.746-41.216 5.325-11.213 16.435-17.818 28.006-17.818 4.403 0 8.909 1.024 13.158 3.021 9.933 4.71 20.582 10.291 31.693 16.896 4.966-30.413-7.117-62.31-33.997-81.203z" />
<glyph unicode="&#xe654;" d="M793.932 757.317h-563.868c-44.496 0-80.556-35.642-80.556-79.624v-238.858c0-175.854 144.254-318.44 322.212-318.44h80.56c177.954 0 322.21 142.586 322.21 318.44v238.858c0.002 43.982-36.062 79.624-80.558 79.624zM512.002 239.815c-133.472 0-241.67 106.938-241.67 238.838v119.44h120.842v-119.44c0-65.94 54.094-119.42 120.834-119.42 66.724 0 120.814 53.48 120.814 119.42h120.842c0-131.9-108.198-238.838-241.662-238.838zM751.64 518.475l-116.792 29.844 28.194 115.448 118.818-29.852-30.22-115.44z" />
<glyph unicode="&#xe655;" d="M122.88 849.92v-121.19c362.803 0 656.896-294.195 656.896-656.998h121.293c0 429.773-348.416 778.189-778.189 778.189zM122.88 607.386v-121.293c228.813 0 414.362-185.498 414.362-414.413h121.242c0 295.834-239.821 535.706-535.603 535.706zM239.053 304.179c-64.205 0-116.224-52.122-116.224-116.275s52.019-116.224 116.224-116.224 116.173 52.019 116.173 116.224-51.968 116.275-116.173 116.275z" />
<glyph unicode="&#xe656;" d="M460.8 307.2h102.4v460.8h102.4l-153.6 204.8-153.6-204.8h102.4v-460.8zM870.4 614.4h-153.6v-102.4h102.4v-460.8h-614.4v460.8h102.4v102.4h-153.6c-28.314 0-51.2-22.886-51.2-51.2v-563.2c0-28.262 22.886-51.2 51.2-51.2h716.8c28.314 0 51.2 22.938 51.2 51.2v563.2c0 28.262-22.886 51.2-51.2 51.2z" />
<glyph unicode="&#xe657;" d="M512 906.24l122.266-344.166h328.294l-267.878-202.138 95.795-354.714-278.477 212.685-278.426-212.685 95.744 354.714-267.93 202.138h328.294l122.317 344.166z" />
<glyph unicode="&#xe658;" d="M287.116 628.041v-232.384c0-27.958 3.104-32.090 30.866-40.062l-6.654-38.934c-14.802 3.354-29.086 4.876-41.974 9.938-24.61 9.654-28.478 31.956-28.584 54.864-0.324 65.694-0.118 131.378-0.118 197.070v12.978c-11.31-0.864-21.69-0.772-31.696-2.674-11.486-2.172-18.062-11.618-18.446-25.428-0.542-19.256-0.18-38.524-0.498-57.782-0.146-8.824-0.544-17.696-1.608-26.444-1.984-16.478-9.562-29.9-23.458-38.87 0.124-1.234-0.054-2.168 0.27-2.396 20.832-14.568 24.422-36.4 24.788-59.416 0.284-18.314-0.016-36.636 0.096-54.954 0.172-27.612 7.324-35.074 35.034-36.838l4.478-0.686v-36.046c-19.244 0.492-38.042 1.274-55.252 10.488-19.172 10.262-25.636 28.056-26.562 48.156-0.964 20.792-0.594 41.664-0.808 62.496-0.040 3.79 0.116 7.59-0.106 11.378-1.386 24.138-10.78 34.766-34.534 38.838-0.178 1.082-0.55 2.286-0.558 3.5-0.048 10.1-0.026 20.194-0.026 29.97l1.696 1.548c24.982 6.034 33.168 16.226 33.478 42.35 0.196 16.734-0.286 33.478 0.164 50.204 0.302 11.32 0.772 22.77 2.786 33.874 4.452 24.546 22.31 39.38 50.894 43.228 8.436 1.13 16.972 1.832 25.462 1.948 19.85 0.282 39.706 0.086 60.87 0.086v0zM367.664 410.413c-2.946-24.302 15.786-46.566 41.746-51.406 24.582-4.582 48.286-0.346 72.834 7.314 1.964-11.384 4.108-22.398 5.504-33.5 0.21-1.694-2.698-4.94-4.762-5.578-35.994-11.268-72.312-14.99-108.442-1.13-22.262 8.532-38.378 24.432-46.958 46.734-13.608 35.418-13.764 71.076 2.268 105.76 23.426 50.708 81.78 63.908 125.456 43.586 26.39-12.276 39.144-35.126 43.682-62.538 2.582-15.678 2.366-31.818 3.506-49.26-46.376 0.018-90.702 0.018-134.834 0.018v0zM454.934 444.623c0.528 29.578-16.222 48.058-42.5 47.894-25.122-0.16-45.524-21.67-44.888-47.894h87.388zM794.544 249.607v36.602l10.486 0.73c19.752 1.594 28.552 10.354 29.052 30.128 0.484 18.93 0.016 37.882 0.36 56.828 0.174 9.136 0.694 18.336 2.042 27.36 2.334 15.616 10.306 28.146 24.948 37.65-25.91 16.432-26.786 41.57-27.046 66.846-0.18 17.364 0.182 34.746-0.152 52.108-0.468 23.588-9.182 32.202-32.832 33.238l-6.524 0.464v36.38c20.538-0.44 40.908-1.094 58.906-12.744 16.766-10.854 22.002-28.042 22.822-46.542 0.992-22.384 0.486-44.822 0.908-67.24 0.132-6.584 0.46-13.364 2.13-19.676 4.312-16.218 15.556-24.61 32.594-25.184v-35.496c-16.32-0.716-27.998-8.492-32.394-24.724-1.718-6.294-2.182-13.066-2.314-19.63-0.438-22.104 0.014-44.226-0.79-66.31-1.248-35.028-19.702-54.544-54.592-58.588-8.964-1.048-18.008-1.448-27.604-2.2v0zM803.074 521.567l-8.428-36.684c-19.518 6.478-38.744 10.916-58.908 7.668-12.7-2.046-20.192-7.628-21.76-16.502-1.718-9.64 2.97-18.16 14.634-23.938 9.864-4.872 20.32-8.504 30.476-12.796 6.084-2.578 12.204-5.132 18.124-8.084 28.474-14.196 38.34-32.422 35.062-64.472-2.286-22.478-18.478-39.020-46.932-45.292-33.948-7.46-67.558-5.364-101.384 7.372l7.408 36.928c14.562-3.318 28.406-7.646 42.58-9.332 11.72-1.4 23.892-0.288 35.736 0.892 7.792 0.78 14.354 4.756 16.296 13.54 1.97 9.020-0.59 16.864-8.208 21.502-9.348 5.698-19.582 9.996-29.496 14.738-11.912 5.704-24.316 10.508-35.784 16.978-33.716 19.034-33.412 77.986 4.094 95.896 11.112 5.302 23.708 8.508 35.976 10.25 23.782 3.386 46.912-1.49 70.514-8.664zM650.168 523.229l-8.798-38.408c-19.556 6.656-38.51 10.854-58.388 7.798-13.306-2.038-20.778-7.672-22.36-17.034-1.61-9.458 3.19-17.796 15.188-23.644 10.456-5.094 21.524-8.95 32.26-13.458 5.226-2.2 10.432-4.492 15.508-7.016 29.49-14.704 39.802-34.484 35.106-67.078-3.228-22.456-22.82-39.724-51.68-44.258-29.296-4.6-58.4-3.85-87.020 5.314-7.010 2.252-9.958 4.974-7.792 12.652 2.562 9.024 4.098 18.348 6.104 27.612 14.472-3.276 28.328-7.606 42.482-9.278 11.728-1.386 23.906-0.272 35.752 0.906 8.314 0.81 14.78 5.474 16.55 14.524 1.71 8.73-1.338 16.312-8.55 20.52-10.842 6.296-22.57 11.076-33.9 16.506-10.504 5.022-21.366 9.412-31.43 15.184-33.758 19.35-33.224 77.862 4.82 96.772 16.934 8.412 34.862 11.564 53.254 10.106 17.39-1.382 34.594-4.96 52.894-7.72v0z" />
<glyph unicode="&#xe65a;" d="M819.2 972.8h-614.4c-56.32 0-102.4-46.029-102.4-102.4v-819.2c0-56.32 46.080-102.4 102.4-102.4h614.4c56.371 0 102.4 46.080 102.4 102.4v819.2c0 56.371-46.029 102.4-102.4 102.4zM512 0c-35.328 0-64 22.886-64 51.2s28.672 51.2 64 51.2c35.277 0 64-22.886 64-51.2s-28.723-51.2-64-51.2zM819.2 153.6h-614.4v716.8h614.4v-716.8z" />
<glyph unicode="&#xe65b;" d="M325.222 325.734c6.81-18.227-181.197-186.061-71.526-322.099 25.651-31.795 112.691 152.32 236.288 235.622 68.147 46.029 226.816 143.923 226.816 198.042v350.31c0 65.075-251.597 133.99-442.778 133.99-70.093 0-171.622-439.091-171.622-508.877 0-69.99 216.115-68.762 222.822-86.989zM768 330.598c33.69 0 153.6 20.48 153.6 159.898v248.218c0 139.315-119.91 154.675-153.6 154.675-33.638 0 51.2-29.286 51.2-115.712v-326.298c0-90.522-84.838-120.781-51.2-120.781z" />
<glyph unicode="&#xe65c;" d="M698.778 595.866c-6.81 18.176 181.197 186.061 71.578 322.099-25.651 31.795-112.691-152.32-236.288-235.674-68.198-45.978-226.867-143.872-226.867-197.99v-350.31c0-65.075 251.597-133.99 442.778-133.99 70.093 0 171.622 439.091 171.622 508.826 0 70.042-216.115 68.813-222.822 87.040zM256 591.002c-33.69 0-153.6-20.48-153.6-159.898v-248.218c0-139.315 119.91-154.675 153.6-154.675 33.638 0-51.2 29.286-51.2 115.712v326.298c0 90.522 84.838 120.781 51.2 120.781z" />
<glyph unicode="&#xe65e;" d="M921.6 921.6h-819.2c-56.371 0-102.4-46.080-102.4-102.4v-563.2c0-56.32 45.158-111.514 100.403-122.522l223.846-44.8c0 0-192.666-88.678-68.25-88.678h512c124.416 0-68.301 88.678-68.301 88.678l223.898 44.8c55.194 11.008 100.403 66.202 100.403 122.522v563.2c0 56.32-46.080 102.4-102.4 102.4zM921.6 256h-819.2v563.2h819.2v-563.2z" />
<glyph unicode="&#xe660;" d="M864.91 148.255c0-34.27-28.040-62.308-62.308-62.308h-581.202c-34.27 0-62.312 28.040-62.312 62.308v581.202c0 34.27 28.042 62.312 62.312 62.312h581.202c34.27 0 62.308-28.042 62.308-62.312v-581.202zM864.91 570.013l-63.75 42.948c1.292 5.512 2.050 11.236 2.050 17.144 0 41.418-33.578 74.996-74.996 74.996s-74.996-33.578-74.996-74.996c0-16.296 5.254-31.332 14.082-43.632l-137.832-210.744c-5.614 1.344-11.442 2.128-17.47 2.128-18.462 0-35.342-6.7-48.41-17.766l-92.242 53.086c0.47 3.394 0.796 6.828 0.796 10.352 0 41.418-33.574 74.994-74.994 74.994-41.416 0-74.992-33.574-74.992-74.994 0-10.286 2.080-20.078 5.824-29l-68.894-63.914v-67.996l102.35 94.954c10.62-5.762 22.782-9.036 35.71-9.036 19.838 0 37.828 7.758 51.238 20.336l90.004-51.796c-0.886-4.602-1.388-9.352-1.388-14.214 0-41.414 33.576-74.992 74.994-74.992s74.994 33.578 74.994 74.992c0 17.254-5.886 33.102-15.676 45.77l136.864 209.27c6.386-1.77 13.082-2.79 20.036-2.79 17.368 0 33.312 5.962 46.032 15.876l90.664-61.080v60.104z" />
<glyph unicode="&#xe661;" d="M955.955 356.506c6.758 31.898 10.394 65.126 10.394 99.226 0 255.283-201.216 462.285-449.382 462.285-26.163 0-51.814-2.406-76.8-6.81-40.192 26.010-87.654 41.114-138.598 41.114-143.923 0-260.608-120.013-260.608-268.134 0-49.408 13.107-95.795 35.789-135.578-5.939-30.003-9.114-61.133-9.114-92.928 0-255.283 201.216-462.285 449.28-462.285 28.211 0 55.654 2.611 82.278 7.68 36.71-20.275 78.592-31.795 123.187-31.795 143.923 0 260.608 120.013 260.608 268.083 0.051 42.854-9.728 83.251-27.034 119.142zM747.469 234.701c-20.787-30.208-51.507-54.221-91.29-71.219-39.373-16.896-86.63-25.395-140.39-25.395-64.512 0-118.63 11.622-160.922 34.714-30.208 16.794-55.091 39.475-73.984 67.482-19.046 28.416-28.723 56.525-28.723 83.61 0 16.896 6.298 31.59 18.688 43.622 12.288 11.878 28.109 18.022 46.899 18.022 15.411 0 28.774-4.813 39.578-14.182 10.342-9.011 19.2-22.426 26.317-39.578 7.987-18.79 16.691-34.611 25.856-47.104 8.806-11.981 21.504-22.118 37.632-30.003 16.282-7.885 38.298-11.878 65.28-11.878 37.12 0 67.584 8.090 90.522 24.218 22.426 15.821 33.28 34.611 33.28 57.702 0 18.278-5.683 32.614-17.408 43.878-12.186 11.674-28.416 20.89-47.923 27.187-20.429 6.502-48.179 13.619-82.483 20.992-46.592 10.291-86.17 22.477-117.709 36.198-32.256 14.080-58.214 33.69-77.21 58.214-19.2 24.73-29.030 55.91-29.030 92.518 0 34.918 10.24 66.406 30.515 93.594 20.122 26.88 49.408 47.872 87.194 62.31 37.274 14.182 81.715 21.402 131.891 21.402 40.090 0 75.418-4.813 104.806-14.182 29.594-9.523 54.579-22.323 74.189-38.093 19.814-15.923 34.509-32.922 43.725-50.483 9.318-17.92 14.080-35.584 14.080-52.787 0-16.486-6.195-31.488-18.483-44.595-12.288-13.21-27.802-19.814-46.080-19.814-16.589 0-29.696 4.198-38.707 12.39-8.397 7.578-17.203 19.61-26.829 36.71-11.213 21.914-24.781 39.219-40.346 51.302-15.104 11.878-40.346 17.92-75.059 17.92-32.205 0-58.419-6.707-77.773-19.814-18.842-12.749-27.904-27.238-27.904-44.339 0-10.598 2.97-19.405 9.011-26.88 6.4-8.090 15.411-15.104 26.778-20.992 11.776-6.144 23.91-10.957 36.096-14.438 12.493-3.584 33.485-8.806 62.208-15.718 36.403-7.987 69.786-16.998 99.277-26.675 29.952-9.882 55.808-22.016 76.902-36.096 21.504-14.49 38.605-33.024 50.637-55.091 12.134-22.221 18.278-49.613 18.278-81.408 0.051-38.144-10.547-72.806-31.386-103.219z" />
<glyph unicode="&#xe662;" d="M870.4 921.6h-716.8c-56.32 0-102.4-46.080-102.4-102.4v-716.8c0-56.371 46.080-102.4 102.4-102.4h358.4v358.4h-102.4v126.72h102.4v104.96c0 110.797 62.054 188.621 192.819 188.621l92.314-0.102v-133.376h-61.286c-50.893 0-70.246-38.195-70.246-73.626v-86.528h131.482l-29.082-126.669h-102.4v-358.4h204.8c56.32 0 102.4 46.029 102.4 102.4v716.8c0 56.32-46.080 102.4-102.4 102.4z" />
<glyph unicode="&#xe664;" d="M674.816 393.779c-36.762 0-66.56-41.318-66.56-92.109 0-50.893 29.798-92.211 66.56-92.211s66.56 41.318 66.56 92.211c-0.051 50.79-29.798 92.109-66.56 92.109zM906.547 633.549c7.629 18.688 7.936 124.877-32.512 226.611 0 0-92.723-10.189-233.011-106.496-29.44 8.192-79.258 12.186-128.973 12.186-49.818 0-99.584-3.994-129.024-12.186-140.339 96.307-233.062 106.496-233.062 106.496-40.397-101.734-39.987-207.923-32.461-226.611-47.514-51.61-76.544-113.613-76.544-198.195 0-367.923 305.306-373.811 382.31-373.811 17.51 0 52.122-0.102 88.781-0.102 36.608 0 71.27 0.102 88.678 0.102 77.107 0 382.31 5.888 382.31 373.811 0 84.582-28.979 146.586-76.493 198.195zM513.434 106.752h-2.867c-193.075 0-343.501 22.989-343.501 210.688 0 45.005 15.872 86.682 53.606 121.293 62.822 57.702 169.216 27.187 289.894 27.187 0.512 0 1.024 0 1.485 0 0.512 0 0.922 0 1.382 0 120.678 0 227.123 30.515 289.997-27.187 37.632-34.611 53.504-76.288 53.504-121.293 0-187.699-150.374-210.688-343.501-210.688zM349.235 393.779c-36.762 0-66.56-41.318-66.56-92.109 0-50.893 29.798-92.211 66.56-92.211 36.813 0 66.611 41.318 66.611 92.211 0 50.79-29.798 92.109-66.611 92.109z" />
<glyph unicode="&#xe666;" d="M256 819.2c0-54.374-36.352-101.171-102.451-101.171-62.208 0-102.349 44.134-102.349 98.509 0 55.808 38.912 105.062 102.4 105.062s101.171-46.592 102.4-102.4zM51.2 0v665.6h204.8v-665.6h-204.8zM358.4 438.067c0 79.104-2.611 145.203-5.222 202.291h184.013l9.114-88.218h3.891c25.907 41.523 89.395 102.4 195.686 102.4 129.638 0 226.918-86.784 226.918-273.51v-381.030h-204.8v351.283c0 81.613-31.078 143.872-102.4 143.872-54.374 0-81.613-44.032-95.898-80.333-5.222-13.005-6.502-31.13-6.502-49.306v-365.517h-204.8v438.067z" />
<glyph unicode="&#xe669;" d="M886.579 653.005c0.41-8.294 0.563-16.691 0.563-24.986 0-255.488-194.406-549.99-549.888-549.99-109.21 0-210.739 32-296.294 86.886 15.155-1.792 30.515-2.714 46.080-2.714 90.624 0 173.926 30.925 240.026 82.688-84.531 1.587-155.955 57.395-180.531 134.195 11.776-2.202 23.91-3.379 36.352-3.379 17.664 0 34.765 2.304 50.944 6.707-88.422 17.818-155.034 95.898-155.034 189.594 0 0.819 0 1.587 0 2.406 26.061-14.49 55.91-23.194 87.552-24.218-51.866 34.714-86.016 93.798-86.016 160.922 0 35.379 9.523 68.608 26.214 97.178 95.283-116.992 237.773-193.894 398.387-201.984-3.277 14.182-4.966 28.877-4.966 44.083 0 106.701 86.477 193.178 193.229 193.178 55.603 0 105.83-23.398 141.107-60.979 43.981 8.704 85.35 24.781 122.726 46.899-14.438-45.107-45.107-82.995-84.992-106.906 39.117 4.71 76.288 15.002 111.002 30.413-25.907-38.81-58.675-72.806-96.461-99.994z" />
<glyph unicode="&#xe695;" d="M822.92 745.715h-617.464c-28.42 0-51.456-23.034-51.456-51.456v-514.554c0-28.422 23.034-51.456 51.456-51.456h617.464c28.422 0 51.456 23.034 51.456 51.456v514.554c0 28.422-23.034 51.456-51.456 51.456zM256.91 385.527l102.912 102.91-102.912 102.91 51.456 51.456 154.368-154.366-154.368-154.366-51.456 51.456zM668.552 334.071h-205.82v51.456h205.82v-51.456z" />
<glyph unicode="&#xe697;" d="M723.958 578.671c0 18.56 0.050 36.118-0.012 53.672-0.062 17.444-7.684 25.076-25.324 25.082-159.44 0.034-318.876 0.034-478.314 0-17.184-0.004-24.696-7.562-24.704-24.562-0.022-50.118-0.008-100.236-0.008-150.352 0-2.894 0-5.79 0-9.244 10.832 0 20.946 0 31.974 0 0 50.576 0 100.818 0 151.38 155.168 0 309.428 0 464.642 0 0-15.568 0-30.624 0-45.976 10.83 0 20.7 0 31.746 0zM611.396 371.307c-105.638 0-210.708 0-316.11 0 0-21.168 0-41.784 0-62.622 105.65 0 210.716 0 316.11 0 0 21.128 0 41.788 0 62.622zM539.61 235.385c0.798 1 1.598 1.998 2.398 2.998-20.478 10.304-26.926 28.044-26.972 48.704-37.454 0-73.428 0-109.636 0-2.258-9.854-2.702-20.384-7.16-28.792-4.332-8.174-12.778-14.164-21.134-22.91 55.924 0 109.214 0 162.504 0zM874.96 255.449c-6.368-16.486-18.566-21.586-35.816-21.378-58.332 0.704-116.678 0.256-175.020 0.274-21.278 0.006-31.040 9.754-31.050 31.262-0.046 86.78-0.038 173.558-0.006 260.334 0.010 21.662 9.494 31.204 30.986 31.216 58.928 0.036 117.858-0.356 176.778 0.242 17.192 0.174 28.748-5.6 34.128-22.232 0-93.238 0-186.478 0-279.718zM856.9 287.231c0 82.86 0 164.69 0 246.61-69.222 0-137.682 0-206.414 0 0-82.512 0-164.582 0-246.61 69.174 0 137.638 0 206.414 0zM803.106 261.589c0.144 6.742-5.038 12.502-11.594 12.88-6.944 0.4-13.088-5.248-13.284-12.214-0.198-7.024 5.578-12.904 12.618-12.842 6.86 0.062 12.112 5.276 12.26 12.176zM729.176 261.765c0.050 7.056-5.756 12.84-12.754 12.704-6.486-0.126-12.14-5.844-12.268-12.404-0.134-6.948 5.77-12.772 12.826-12.648 6.664 0.114 12.152 5.668 12.196 12.348zM754.018 274.467c-6.524 0.214-12.404-5.232-12.738-11.8-0.366-7.146 5.044-13.052 12.14-13.246 6.806-0.186 12.36 4.954 12.706 11.746 0.356 7.134-5.044 13.068-12.108 13.3zM165.986 220.263c-12.914 3.88-17.054 12.59-16.944 25.876 0.502 60.94 0.208 121.884 0.23 182.828 0.004 15.95 6.132 22.426 22.25 22.574 26.66 0.24 53.326 0.23 79.986 0.002 15.454-0.132 22.038-6.852 22.054-22.064 0.072-62.114-0.136-124.23 0.174-186.346 0.062-12.166-5.762-18.866-16.27-22.87-30.492 0-60.986 0-91.48 0zM161.612 411.667c0-51.284 0-101.784 0-152.398 33.564 0 66.514 0 99.596 0 0 51.084 0 101.568 0 152.398-33.38 0-66.118 0-99.596 0zM723.958 578.671c-11.046 0-20.916 0-31.744 0 0 15.354 0 30.408 0 45.976-155.214 0-309.474 0-464.642 0 0-50.562 0-100.804 0-151.38-11.028 0-21.142 0-31.974 0 0 3.456 0 6.35 0 9.244 0 50.116-0.014 100.234 0.008 150.352 0.008 17 7.518 24.558 24.704 24.562 159.438 0.034 318.874 0.034 478.314 0 17.64-0.006 25.262-7.638 25.324-25.082 0.062-17.556 0.010-35.112 0.010-53.672zM611.396 371.307c0-20.834 0-41.494 0-62.622-105.392 0-210.46 0-316.11 0 0 20.838 0 41.454 0 62.622 105.404 0 210.472 0 316.11 0zM473.834 340.563c-0.184 7.926-6.904 14.050-14.984 13.658-7.678-0.376-13.558-6.718-13.348-14.396 0.206-7.488 6.672-13.882 14.064-13.906 7.738-0.026 14.448 6.86 14.268 14.644zM539.61 235.385c-53.29 0-106.58 0-162.504 0 8.358 8.746 16.802 14.736 21.134 22.91 4.458 8.406 4.902 18.938 7.16 28.792 36.208 0 72.184 0 109.636 0 0.046-20.658 6.494-38.398 26.972-48.704-0.8-1-1.6-1.998-2.398-2.998zM217.626 241.419c0-4.246-3.442-7.688-7.688-7.688s-7.688 3.442-7.688 7.688c0 4.246 3.442 7.688 7.688 7.688s7.688-3.442 7.688-7.688z" />
<glyph unicode="&#xe6a4;" d="M729.496 494.003c-2.159 24.76-6.691 49.474-13.027 73.497-20.001 75.796-53.309 148.386-100.305 211.296-12.814 17.152-26.63 33.542-41.404 49.039-15.227 15.97-32.139 30.609-42.752 50.483-6.715 12.569-13.111 25.319-19.646 37.988-0.080-3.963-0.362-7.932-0.354-11.887-0.006 3.955 0.274 7.926 0.354 11.889-1.212 3.056-2.421 6.103-4.147 10.447-0.692-2.398-1.139-3.248-1.159-4.112-0.535-20.656-12.243-34.669-26.812-47.745-16.39-14.713-31.652-30.691-47.403-46.115 0.539-0.717 1.151-1.407 1.757-2.099-0.606 0.692-1.225 1.382-1.761 2.097-46.805-61.563-88.060-127.402-112.359-201.282-7.078-21.52-12.648-43.475-16.546-65.798-8.274-47.389-12.143-93.444-9.456-141.447 1.481-26.544 6.097-52.648 13.013-78.334 25.127-93.338 76.134-170.76 145.867-236.536 12.952-12.22 26.95-23.337 40.468-34.959 0.035 0.117 0.068 0.231 0.104 0.348-0.035-0.117-0.068-0.233-0.102-0.35 1.995-6.842 3.985-13.683 5.974-20.529 1.853-10.623 3.709-21.244 5.562-31.875 0.889-11.088 1.772-22.166 2.66-33.257-0.027-6.765-0.307-13.537 0.094-20.267 0.102-1.726 2.365-3.326 3.631-4.981 0.035 0.059 0.076 0.121 0.113 0.18-0.035-0.061-0.078-0.123-0.113-0.184 3.766-1.323 7.53-2.644 11.295-3.967 3.396-1.323 6.791-2.646 11.756-4.577-0.752 11.084-1.38 20.328-2.011 29.569-0.031 9.708-0.066 19.413-0.096 29.118-0.205-0.236-0.432-0.461-0.659-0.684 0.227 0.227 0.457 0.453 0.659 0.688 1.356 14.787 2.71 29.571 4.069 44.362 0.981 3.217 1.966 6.441 2.949 9.662 2.804 4.981 5.616 9.957 8.425 14.938 10.408 8.374 21.578 15.97 31.058 25.287 17.152 16.851 34.261 33.923 49.615 52.384 19.917 23.947 37.061 50.080 50.817 78.103 39.133 79.706 57.25 168.612 50.065 257.251-0.057 0.782-0.125 1.571-0.193 2.359z" />
<glyph unicode="" d="M729.496 494.003c-2.159 24.76-6.691 49.474-13.027 73.497-20.001 75.796-53.309 148.386-100.305 211.296-12.814 17.152-26.63 33.542-41.404 49.039-15.227 15.97-32.139 30.609-42.752 50.483-6.715 12.569-13.111 25.319-19.646 37.988-0.080-3.963-0.362-7.932-0.354-11.887-0.006 3.955 0.274 7.926 0.354 11.889-1.212 3.056-2.421 6.103-4.147 10.447-0.692-2.398-1.139-3.248-1.159-4.112-0.535-20.656-12.243-34.669-26.812-47.745-16.39-14.713-31.652-30.691-47.403-46.115 0.539-0.717 1.151-1.407 1.757-2.099-0.606 0.692-1.225 1.382-1.761 2.097-46.805-61.563-88.060-127.402-112.359-201.282-7.078-21.52-12.648-43.475-16.546-65.798-8.274-47.389-12.143-93.444-9.456-141.447 1.481-26.544 6.097-52.648 13.013-78.334 25.127-93.338 76.134-170.76 145.867-236.536 12.952-12.22 26.95-23.337 40.468-34.959 0.035 0.117 0.068 0.231 0.104 0.348-0.035-0.117-0.068-0.233-0.102-0.35 1.995-6.842 3.985-13.683 5.974-20.529 1.853-10.623 3.709-21.244 5.562-31.875 0.889-11.088 1.772-22.166 2.66-33.257-0.027-6.765-0.307-13.537 0.094-20.267 0.102-1.726 2.365-3.326 3.631-4.981 0.035 0.059 0.076 0.121 0.113 0.18-0.035-0.061-0.078-0.123-0.113-0.184 3.766-1.323 7.53-2.644 11.295-3.967 3.396-1.323 6.791-2.646 11.756-4.577-0.752 11.084-1.38 20.328-2.011 29.569-0.031 9.708-0.066 19.413-0.096 29.118-0.205-0.236-0.432-0.461-0.659-0.684 0.227 0.227 0.457 0.453 0.659 0.688 1.356 14.787 2.71 29.571 4.069 44.362 0.981 3.217 1.966 6.441 2.949 9.662 2.804 4.981 5.616 9.957 8.425 14.938 10.408 8.374 21.578 15.97 31.058 25.287 17.152 16.851 34.261 33.923 49.615 52.384 19.917 23.947 37.061 50.080 50.817 78.103 39.133 79.706 57.25 168.612 50.065 257.251-0.057 0.782-0.125 1.571-0.193 2.359z" />
<glyph unicode="tw" d="M886.579 653.005c0.41-8.294 0.563-16.691 0.563-24.986 0-255.488-194.406-549.99-549.888-549.99-109.21 0-210.739 32-296.294 86.886 15.155-1.792 30.515-2.714 46.080-2.714 90.624 0 173.926 30.925 240.026 82.688-84.531 1.587-155.955 57.395-180.531 134.195 11.776-2.202 23.91-3.379 36.352-3.379 17.664 0 34.765 2.304 50.944 6.707-88.422 17.818-155.034 95.898-155.034 189.594 0 0.819 0 1.587 0 2.406 26.061-14.49 55.91-23.194 87.552-24.218-51.866 34.714-86.016 93.798-86.016 160.922 0 35.379 9.523 68.608 26.214 97.178 95.283-116.992 237.773-193.894 398.387-201.984-3.277 14.182-4.966 28.877-4.966 44.083 0 106.701 86.477 193.178 193.229 193.178 55.603 0 105.83-23.398 141.107-60.979 43.981 8.704 85.35 24.781 122.726 46.899-14.438-45.107-45.107-82.995-84.992-106.906 39.117 4.71 76.288 15.002 111.002 30.413-25.907-38.81-58.675-72.806-96.461-99.994z" />
<glyph unicode="sk" d="M955.955 356.506c6.758 31.898 10.394 65.126 10.394 99.226 0 255.283-201.216 462.285-449.382 462.285-26.163 0-51.814-2.406-76.8-6.81-40.192 26.010-87.654 41.114-138.598 41.114-143.923 0-260.608-120.013-260.608-268.134 0-49.408 13.107-95.795 35.789-135.578-5.939-30.003-9.114-61.133-9.114-92.928 0-255.283 201.216-462.285 449.28-462.285 28.211 0 55.654 2.611 82.278 7.68 36.71-20.275 78.592-31.795 123.187-31.795 143.923 0 260.608 120.013 260.608 268.083 0.051 42.854-9.728 83.251-27.034 119.142zM747.469 234.701c-20.787-30.208-51.507-54.221-91.29-71.219-39.373-16.896-86.63-25.395-140.39-25.395-64.512 0-118.63 11.622-160.922 34.714-30.208 16.794-55.091 39.475-73.984 67.482-19.046 28.416-28.723 56.525-28.723 83.61 0 16.896 6.298 31.59 18.688 43.622 12.288 11.878 28.109 18.022 46.899 18.022 15.411 0 28.774-4.813 39.578-14.182 10.342-9.011 19.2-22.426 26.317-39.578 7.987-18.79 16.691-34.611 25.856-47.104 8.806-11.981 21.504-22.118 37.632-30.003 16.282-7.885 38.298-11.878 65.28-11.878 37.12 0 67.584 8.090 90.522 24.218 22.426 15.821 33.28 34.611 33.28 57.702 0 18.278-5.683 32.614-17.408 43.878-12.186 11.674-28.416 20.89-47.923 27.187-20.429 6.502-48.179 13.619-82.483 20.992-46.592 10.291-86.17 22.477-117.709 36.198-32.256 14.080-58.214 33.69-77.21 58.214-19.2 24.73-29.030 55.91-29.030 92.518 0 34.918 10.24 66.406 30.515 93.594 20.122 26.88 49.408 47.872 87.194 62.31 37.274 14.182 81.715 21.402 131.891 21.402 40.090 0 75.418-4.813 104.806-14.182 29.594-9.523 54.579-22.323 74.189-38.093 19.814-15.923 34.509-32.922 43.725-50.483 9.318-17.92 14.080-35.584 14.080-52.787 0-16.486-6.195-31.488-18.483-44.595-12.288-13.21-27.802-19.814-46.080-19.814-16.589 0-29.696 4.198-38.707 12.39-8.397 7.578-17.203 19.61-26.829 36.71-11.213 21.914-24.781 39.219-40.346 51.302-15.104 11.878-40.346 17.92-75.059 17.92-32.205 0-58.419-6.707-77.773-19.814-18.842-12.749-27.904-27.238-27.904-44.339 0-10.598 2.97-19.405 9.011-26.88 6.4-8.090 15.411-15.104 26.778-20.992 11.776-6.144 23.91-10.957 36.096-14.438 12.493-3.584 33.485-8.806 62.208-15.718 36.403-7.987 69.786-16.998 99.277-26.675 29.952-9.882 55.808-22.016 76.902-36.096 21.504-14.49 38.605-33.024 50.637-55.091 12.134-22.221 18.278-49.613 18.278-81.408 0.051-38.144-10.547-72.806-31.386-103.219z" />
<glyph unicode="rs" d="M122.88 849.92v-121.19c362.803 0 656.896-294.195 656.896-656.998h121.293c0 429.773-348.416 778.189-778.189 778.189zM122.88 607.386v-121.293c228.813 0 414.362-185.498 414.362-414.413h121.242c0 295.834-239.821 535.706-535.603 535.706zM239.053 304.179c-64.205 0-116.224-52.122-116.224-116.275s52.019-116.224 116.224-116.224 116.173 52.019 116.173 116.224-51.968 116.275-116.173 116.275z" />
<glyph unicode="ph" d="M574.925 397.875c-81.050-80.998-174.95-158.515-212.070-121.395-53.094 53.094-85.862 99.379-203.008 5.222-117.094-94.106-27.136-156.877 24.32-208.282 59.392-59.392 280.781-3.174 499.61 215.603 218.778 218.829 274.842 440.218 215.398 499.61-51.456 51.507-113.92 141.414-208.026 24.32-94.157-117.094-47.923-149.862 5.274-203.008 36.966-37.12-40.499-131.021-121.498-212.070z" />
<glyph unicode="in" d="M256 819.2c0-54.374-36.352-101.171-102.451-101.171-62.208 0-102.349 44.134-102.349 98.509 0 55.808 38.912 105.062 102.4 105.062s101.171-46.592 102.4-102.4zM51.2 0v665.6h204.8v-665.6h-204.8zM358.4 438.067c0 79.104-2.611 145.203-5.222 202.291h184.013l9.114-88.218h3.891c25.907 41.523 89.395 102.4 195.686 102.4 129.638 0 226.918-86.784 226.918-273.51v-381.030h-204.8v351.283c0 81.613-31.078 143.872-102.4 143.872-54.374 0-81.613-44.032-95.898-80.333-5.222-13.005-6.502-31.13-6.502-49.306v-365.517h-204.8v438.067z" />
<glyph unicode="gh" d="M674.816 393.779c-36.762 0-66.56-41.318-66.56-92.109 0-50.893 29.798-92.211 66.56-92.211s66.56 41.318 66.56 92.211c-0.051 50.79-29.798 92.109-66.56 92.109zM906.547 633.549c7.629 18.688 7.936 124.877-32.512 226.611 0 0-92.723-10.189-233.011-106.496-29.44 8.192-79.258 12.186-128.973 12.186-49.818 0-99.584-3.994-129.024-12.186-140.339 96.307-233.062 106.496-233.062 106.496-40.397-101.734-39.987-207.923-32.461-226.611-47.514-51.61-76.544-113.613-76.544-198.195 0-367.923 305.306-373.811 382.31-373.811 17.51 0 52.122-0.102 88.781-0.102 36.608 0 71.27 0.102 88.678 0.102 77.107 0 382.31 5.888 382.31 373.811 0 84.582-28.979 146.586-76.493 198.195zM513.434 106.752h-2.867c-193.075 0-343.501 22.989-343.501 210.688 0 45.005 15.872 86.682 53.606 121.293 62.822 57.702 169.216 27.187 289.894 27.187 0.512 0 1.024 0 1.485 0 0.512 0 0.922 0 1.382 0 120.678 0 227.123 30.515 289.997-27.187 37.632-34.611 53.504-76.288 53.504-121.293 0-187.699-150.374-210.688-343.501-210.688zM349.235 393.779c-36.762 0-66.56-41.318-66.56-92.109 0-50.893 29.798-92.211 66.56-92.211 36.813 0 66.611 41.318 66.611 92.211 0 50.79-29.798 92.109-66.611 92.109z" />
<glyph unicode="fb" d="M870.4 921.6h-716.8c-56.32 0-102.4-46.080-102.4-102.4v-716.8c0-56.371 46.080-102.4 102.4-102.4h358.4v358.4h-102.4v126.72h102.4v104.96c0 110.797 62.054 188.621 192.819 188.621l92.314-0.102v-133.376h-61.286c-50.893 0-70.246-38.195-70.246-73.626v-86.528h131.482l-29.082-126.669h-102.4v-358.4h204.8c56.32 0 102.4 46.029 102.4 102.4v716.8c0 56.32-46.080 102.4-102.4 102.4z" />
</font>
</defs>
</svg>
